<!DOCTYPE svg PUBLIC "-//W3C//DTD SVG 20010904//EN" "http://www.w3.org/TR/2001/REC-SVG-20010904/DTD/svg10.dtd">
<svg version="1.0" xmlns="http://www.w3.org/2000/svg" width="417px" height="209px" viewBox="0 0 4170 2090" preserveAspectRatio="xMidYMid meet">
<g id="layer101" fill="#251c0d" stroke="none">
<path d="M335 1786 c-67 -29 -104 -105 -91 -184 13 -85 161 -312 203 -312 8 0 28 7 44 16 17 8 33 13 36 10 3 -2 -10 -12 -29 -22 -18 -9 -35 -18 -37 -20 -6 -5 44 -47 106 -91 l52 -36 50 37 c27 20 56 50 63 66 13 30 28 40 28 18 0 -7 -27 -39 -61 -71 -56 -55 -59 -60 -42 -73 24 -18 157 -74 177 -74 13 0 33 20 63 66 10 16 11 14 2 -11 -6 -16 -17 -38 -26 -47 -18 -20 -19 -19 52 -37 69 -18 101 -14 120 16 34 52 30 145 -9 196 -9 11 -31 19 -60 22 -58 5 -164 60 -251 132 -37 31 -65 51 -61 45 10 -16 -14 -26 -27 -12 -9 9 -9 11 -1 7 25 -14 21 22 -8 67 -16 26 -46 89 -66 139 -23 56 -51 106 -73 129 -31 33 -42 38 -80 38 -24 -1 -58 -7 -74 -14z m90 -46 c10 -11 13 -20 7 -20 -6 0 -14 5 -17 10 -10 17 -23 11 -28 -12 -3 -20 -4 -21 -11 -5 -5 10 -3 23 4 32 16 20 23 19 45 -5z m-85 -50 c11 -20 -3 -30 -15 -10 -11 18 -27 11 -22 -10 3 -11 1 -20 -3 -20 -12 0 -23 37 -15 50 11 17 44 11 55 -10z m161 -17 c12 -15 12 -16 -3 -10 -10 3 -18 2 -18 -3 0 -5 -15 -19 -32 -32 l-33 -23 23 29 c12 16 22 35 22 42 0 19 25 17 41 -3z m-91 -67 c0 -3 -5 -8 -12 -12 -7 -4 -8 -3 -4 4 7 12 16 16 16 8z m-36 -18 c-3 -4 -20 -10 -39 -14 -19 -3 -35 -11 -35 -17 0 -6 -3 -8 -6 -4 -3 3 -3 14 0 24 5 14 15 19 45 18 21 0 37 -3 35 -7z m3 -175 c-4 -3 -7 0 -7 7 0 7 3 10 7 7 3 -4 3 -10 0 -14z m247 -28 c-4 -9 -15 -20 -26 -26 -20 -11 -20 -11 -2 15 21 28 37 34 28 11z m-57 -52 c-4 -3 -10 -3 -14 0 -3 4 0 7 7 7 7 0 10 -3 7 -7z m217 -28 c-4 -8 -8 -15 -10 -15 -2 0 -4 7 -4 15 0 8 4 15 10 15 5 0 7 -7 4 -15z m156 -81 c0 -8 -5 -12 -10 -9 -6 4 -8 11 -5 16 9 14 15 11 15 -7z m-19 -57 c-8 -8 -11 -7 -11 4 0 20 13 34 18 19 3 -7 -1 -17 -7 -23z"/>
<path d="M1113 1455 c-10 -7 -14 -17 -10 -21 4 -5 12 -2 16 5 5 8 14 10 21 6 9 -6 5 -12 -14 -22 -14 -7 -26 -17 -26 -22 0 -15 29 -33 45 -27 24 9 18 28 -7 21 l-23 -6 23 17 c25 18 29 49 8 57 -8 3 -22 0 -33 -8z"/>
<path d="M1739 1449 c-24 -24 -24 -31 -1 -59 21 -26 62 -20 62 8 0 12 -3 13 -12 4 -16 -16 -35 -15 -42 3 -8 21 3 45 21 45 9 0 13 -6 9 -15 -3 -9 0 -15 9 -15 8 0 15 8 15 19 0 27 -37 34 -61 10z"/>
<path d="M1863 1463 c-7 -2 -13 -12 -13 -20 0 -13 3 -13 15 -3 9 7 19 9 23 5 4 -4 -3 -14 -15 -22 -13 -9 -23 -21 -23 -29 0 -15 35 -28 50 -19 18 11 10 27 -10 20 -11 -3 -20 -2 -20 3 0 5 9 12 20 15 24 6 27 42 4 51 -9 3 -16 6 -17 5 -1 0 -8 -3 -14 -6z"/>
<path d="M2209 1452 c-27 -23 -20 -67 12 -77 23 -7 59 18 45 32 -4 4 -11 1 -16 -6 -11 -19 -40 -6 -40 19 0 23 31 41 38 22 4 -14 22 -16 22 -2 0 5 -9 14 -19 20 -15 7 -25 5 -42 -8z"/>
<path d="M1200 1425 c0 -24 -5 -35 -15 -35 -8 0 -15 -4 -15 -10 0 -5 15 -10 34 -10 19 0 38 5 41 10 3 6 -1 10 -9 10 -12 0 -16 10 -16 35 0 19 -4 35 -10 35 -5 0 -10 -16 -10 -35z"/>
<path d="M1261 1418 c-1 -40 2 -48 17 -48 9 0 22 4 29 8 13 8 15 82 2 82 -5 0 -9 -7 -9 -15 0 -21 -28 -19 -33 3 -3 9 -5 -4 -6 -30z m39 -18 c0 -5 -7 -10 -15 -10 -8 0 -15 5 -15 10 0 6 7 10 15 10 8 0 15 -4 15 -10z"/>
<path d="M1340 1415 c0 -41 2 -45 24 -45 14 0 28 5 31 10 4 6 -5 10 -19 10 -14 0 -26 5 -26 10 0 6 9 10 20 10 11 0 20 5 20 10 0 6 -9 10 -20 10 -11 0 -20 5 -20 10 0 6 13 10 28 10 25 0 31 -6 42 -40 16 -48 29 -47 47 5 15 44 10 57 -12 29 -14 -18 -16 -18 -26 -1 -7 11 -23 17 -49 17 l-40 0 0 -45z"/>
<path d="M1492 1418 c4 -51 22 -60 35 -16 l10 33 13 -32 c17 -47 30 -41 29 15 -1 36 -3 41 -8 22 l-7 -25 -8 23 c-4 12 -12 22 -17 22 -5 0 -14 -10 -19 -22 l-9 -23 0 23 c-1 12 -6 22 -12 22 -6 0 -9 -17 -7 -42z"/>
<path d="M1600 1415 c0 -25 5 -45 10 -45 6 0 10 20 10 45 0 25 -4 45 -10 45 -5 0 -10 -20 -10 -45z"/>
<path d="M1640 1415 c0 -51 13 -58 34 -17 l15 27 1 -27 c0 -16 5 -28 10 -28 6 0 10 20 10 45 0 50 -19 61 -38 23 l-11 -23 0 23 c-2 43 -21 22 -21 -23z"/>
<path d="M1930 1415 c0 -41 2 -45 24 -45 14 0 28 5 31 10 4 6 -5 10 -19 10 -14 0 -26 5 -26 10 0 6 9 10 20 10 11 0 20 5 20 10 0 6 -9 10 -20 10 -30 0 -24 18 8 23 25 4 25 4 -5 6 -33 1 -33 0 -33 -44z"/>
<path d="M2000 1415 c0 -41 2 -45 24 -45 30 0 40 15 41 57 0 35 -9 43 -19 18 -3 -8 -10 -15 -16 -15 -5 0 -10 7 -10 15 0 8 -4 15 -10 15 -5 0 -10 -20 -10 -45z m50 -15 c0 -5 -7 -10 -15 -10 -8 0 -15 5 -15 10 0 6 7 10 15 10 8 0 15 -4 15 -10z"/>
<path d="M2087 1420 c-8 -22 -12 -42 -7 -45 4 -3 13 10 20 28 l11 32 16 -35 c8 -19 17 -30 20 -23 5 14 -23 83 -35 83 -5 0 -16 -18 -25 -40z"/>
<path d="M2160 1415 c0 -25 5 -45 10 -45 6 0 10 20 10 45 0 25 -4 45 -10 45 -5 0 -10 -20 -10 -45z"/>
<path d="M2290 1415 c0 -41 2 -45 24 -45 14 0 28 5 31 10 4 6 -5 10 -19 10 -14 0 -26 5 -26 10 0 6 9 10 20 10 11 0 20 5 20 10 0 6 -9 10 -20 10 -30 0 -24 18 8 23 25 4 25 4 -5 6 -33 1 -33 0 -33 -44z"/>
<path d="M1155 1188 c-7 -55 -35 -309 -35 -325 0 -19 57 -16 64 3 3 9 6 37 7 62 0 26 4 67 8 92 l7 45 17 -75 c9 -41 20 -90 23 -107 5 -26 11 -33 30 -33 26 0 33 18 55 144 16 84 25 68 34 -56 l7 -88 33 0 c32 0 33 1 28 38 -2 20 -12 105 -22 187 l-16 150 -32 3 c-34 3 -34 3 -53 -83 -6 -27 -16 -68 -22 -90 l-11 -40 -26 105 c-26 104 -26 105 -58 108 -30 3 -32 1 -38 -40z"/>
<path d="M1970 1040 l0 -190 40 0 c33 0 41 4 45 23 3 12 16 65 29 117 l22 95 23 -100 c12 -55 25 -108 27 -117 4 -13 16 -18 45 -18 l39 0 0 190 0 190 -30 0 -30 0 0 -80 c0 -44 -4 -80 -10 -80 -5 0 -17 36 -26 80 -16 71 -20 81 -38 78 -17 -3 -25 -20 -47 -113 l-27 -110 -1 113 -1 112 -30 0 -30 0 0 -190z"/>
<path d="M3190 1072 c-28 -28 -50 -85 -50 -130 0 -41 30 -92 54 -92 11 0 35 -8 51 -19 39 -24 150 -136 183 -184 18 -27 31 -37 44 -34 10 3 21 1 24 -4 5 -8 -10 -13 -29 -10 -5 1 -6 -4 -4 -11 19 -45 38 -127 52 -217 8 -57 23 -118 33 -135 26 -45 76 -68 135 -62 121 13 173 126 132 285 -17 67 -48 140 -81 192 -23 36 -23 37 -70 28 -62 -12 -69 -3 -10 12 25 6 46 15 46 19 0 11 -70 99 -102 128 -24 22 -25 22 -73 5 -27 -10 -64 -33 -82 -51 -18 -18 -33 -28 -33 -23 0 15 63 65 108 85 23 11 41 24 39 30 -6 18 -130 116 -155 122 -31 9 -66 -17 -98 -71 -14 -25 -29 -44 -32 -41 -7 8 55 100 78 114 11 7 18 17 15 23 -8 11 -120 69 -135 69 -7 0 -24 -13 -40 -28z m77 -69 c-4 -3 -7 0 -7 7 0 7 3 10 7 7 3 -4 3 -10 0 -14z m153 -63 c0 -5 -2 -10 -4 -10 -3 0 -8 5 -11 10 -3 6 -1 10 4 10 6 0 11 -4 11 -10z m-15 -30 c3 -5 1 -10 -4 -10 -6 0 -11 5 -11 10 0 6 2 10 4 10 3 0 8 -4 11 -10z m-140 -39 c3 -5 1 -12 -5 -16 -5 -3 -10 1 -10 9 0 18 6 21 15 7z m272 -88 c-4 -3 -7 0 -7 7 0 7 3 10 7 7 3 -4 3 -10 0 -14z m30 0 c-4 -3 -7 0 -7 7 0 7 3 10 7 7 3 -4 3 -10 0 -14z m-173 -38 c-4 -8 -10 -12 -15 -9 -11 6 -2 24 11 24 5 0 7 -7 4 -15z m203 -82 c-4 -3 -10 -3 -14 0 -3 4 0 7 7 7 7 0 10 -3 7 -7z m-47 -18 c0 -2 -10 -10 -22 -16 -21 -11 -22 -11 -9 4 13 16 31 23 31 12z m167 -102 c-4 -3 -10 -3 -14 0 -3 4 0 7 7 7 7 0 10 -3 7 -7z m30 -10 c-4 -3 -7 0 -7 7 0 7 3 10 7 7 3 -4 3 -10 0 -14z m36 -174 c-5 -5 -25 -3 -48 4 l-40 12 45 5 c44 5 61 -3 43 -21z m-116 4 c-4 -3 -10 -3 -14 0 -3 4 0 7 7 7 7 0 10 -3 7 -7z m-63 -38 c-13 -20 -19 -23 -30 -14 -8 6 -14 17 -14 23 0 6 5 4 10 -4 8 -13 11 -13 27 3 24 24 26 21 7 -8z m157 -78 c-15 -15 -45 3 -49 29 -3 18 -2 18 11 2 20 -25 37 -22 38 5 2 22 2 22 6 -2 3 -13 0 -28 -6 -34z m-99 -19 c-13 -13 -42 -3 -41 14 0 10 2 10 6 1 8 -22 33 -14 34 10 1 18 2 19 6 3 3 -10 0 -23 -5 -28z"/>
</g>
<g id="layer102" fill="#684d1e" stroke="none">
<path d="M335 1786 c-42 -18 -83 -69 -91 -112 -10 -52 1 -101 40 -179 38 -76 140 -205 163 -205 8 0 33 10 56 21 29 15 38 17 29 7 -7 -9 -26 -21 -42 -28 -17 -7 -30 -15 -30 -18 0 -7 50 -49 107 -89 l52 -36 50 37 c27 20 56 50 63 66 13 30 28 40 28 18 0 -7 -27 -39 -61 -71 -56 -55 -59 -60 -42 -73 23 -17 157 -74 176 -74 16 0 38 23 61 65 15 27 16 27 11 5 -4 -14 -15 -37 -26 -53 -22 -30 -23 -28 46 -46 69 -18 101 -14 120 16 34 52 30 145 -9 196 -9 11 -31 19 -60 22 -58 5 -164 60 -251 132 -37 31 -65 51 -61 45 10 -16 -14 -26 -27 -12 -9 9 -9 11 -1 7 25 -14 21 22 -8 67 -16 26 -46 89 -66 139 -23 56 -51 106 -73 129 -31 33 -42 38 -80 38 -24 -1 -58 -7 -74 -14z m90 -46 c10 -11 13 -20 7 -20 -6 0 -14 5 -17 10 -10 17 -23 11 -28 -12 -3 -20 -4 -21 -11 -5 -5 10 -3 23 4 32 16 20 23 19 45 -5z m-85 -50 c11 -20 -3 -30 -15 -10 -11 18 -27 11 -22 -10 3 -11 1 -20 -3 -20 -12 0 -23 37 -15 50 11 17 44 11 55 -10z m161 -17 c12 -15 12 -16 -3 -11 -10 4 -19 1 -22 -8 -8 -22 -92 -71 -134 -79 -20 -4 -40 -12 -44 -18 -5 -8 -8 -7 -8 3 0 26 14 35 56 35 50 1 93 27 107 66 13 33 28 37 48 12z m-124 -260 c-4 -3 -7 0 -7 7 0 7 3 10 7 7 3 -4 3 -10 0 -14z m247 -28 c-4 -9 -15 -20 -26 -26 -20 -11 -20 -11 -2 15 21 28 37 34 28 11z m-57 -52 c-4 -3 -10 -3 -14 0 -3 4 0 7 7 7 7 0 10 -3 7 -7z m217 -28 c-4 -8 -8 -15 -10 -15 -2 0 -4 7 -4 15 0 8 4 15 10 15 5 0 7 -7 4 -15z m156 -81 c0 -8 -5 -12 -10 -9 -6 4 -8 11 -5 16 9 14 15 11 15 -7z m-323 -11 c-4 -3 -7 0 -7 7 0 7 3 10 7 7 3 -4 3 -10 0 -14z m304 -50 c-10 -17 -10 -16 -11 3 0 23 13 41 18 25 2 -6 -1 -18 -7 -28z m46 -80 c-4 -3 -10 -3 -14 0 -3 4 0 7 7 7 7 0 10 -3 7 -7z"/>
<path d="M675 1450 c3 -5 8 -10 11 -10 3 0 2 5 -1 10 -3 6 -8 10 -11 10 -3 0 -2 -4 1 -10z"/>
<path d="M1107 1453 c-15 -14 -6 -22 13 -11 10 7 23 8 27 4 4 -5 3 -11 -3 -13 -6 -2 -20 -10 -30 -18 -17 -13 -18 -15 -3 -30 9 -9 23 -13 32 -9 24 9 21 27 -3 19 -11 -3 -20 -2 -20 3 0 5 9 12 20 15 30 8 27 47 -3 47 -13 0 -27 -3 -30 -7z"/>
<path d="M1200 1425 c0 -25 -4 -35 -16 -35 -8 0 -12 -4 -9 -10 3 -5 19 -10 36 -10 16 0 29 5 29 10 0 6 -4 10 -10 10 -5 0 -10 16 -10 35 0 19 -4 35 -10 35 -5 0 -10 -16 -10 -35z"/>
<path d="M1261 1418 c-1 -49 8 -58 39 -38 16 10 24 80 9 80 -5 0 -9 -7 -9 -15 0 -21 -28 -19 -33 3 -3 9 -5 -4 -6 -30z m39 -18 c0 -5 -7 -10 -15 -10 -8 0 -15 5 -15 10 0 6 7 10 15 10 8 0 15 -4 15 -10z"/>
<path d="M1340 1415 c0 -41 2 -45 25 -45 14 0 25 5 25 10 0 6 -9 10 -20 10 -11 0 -20 5 -20 10 0 6 9 10 20 10 11 0 20 5 20 10 0 6 -9 10 -20 10 -30 0 -24 18 8 23 25 4 25 4 -5 6 -33 1 -33 0 -33 -44z"/>
<path d="M1410 1452 c0 -7 7 -29 16 -50 l15 -37 13 25 c22 40 28 70 17 70 -6 0 -11 -7 -11 -15 0 -21 -27 -19 -39 3 -6 10 -11 12 -11 4z m40 -42 c0 -5 -2 -10 -4 -10 -3 0 -8 5 -11 10 -3 6 -1 10 4 10 6 0 11 -4 11 -10z"/>
<path d="M1490 1421 c0 -52 17 -61 34 -19 l14 33 11 -27 c18 -47 31 -43 30 9 -1 41 -2 44 -8 18 l-7 -30 -7 28 c-9 33 -24 35 -37 5 l-9 -23 0 23 c-1 39 -21 23 -21 -17z"/>
<path d="M1641 1423 c-1 -48 10 -54 33 -21 l16 22 0 -22 c0 -12 5 -22 10 -22 6 0 10 18 10 40 0 48 -12 51 -37 9 l-18 -31 -6 34 c-6 32 -6 32 -8 -9z"/>
<path d="M1737 1453 c-16 -15 -6 -63 14 -73 21 -12 49 1 49 22 0 6 -7 5 -15 -2 -17 -14 -45 -7 -45 12 0 25 18 41 36 34 16 -6 16 -8 4 -16 -13 -8 -12 -10 3 -10 10 0 17 8 17 20 0 15 -7 20 -28 20 -16 0 -32 -3 -35 -7z"/>
<path d="M1857 1454 c-14 -14 -7 -26 8 -14 9 7 19 10 23 6 4 -4 -4 -16 -18 -26 -24 -18 -24 -20 -7 -37 16 -16 18 -16 35 1 16 17 16 18 -5 11 -13 -3 -23 -2 -23 3 0 5 9 12 21 15 13 4 20 12 17 24 -3 18 -38 30 -51 17z"/>
<path d="M1930 1415 c0 -41 2 -45 25 -45 14 0 25 5 25 10 0 6 -9 10 -20 10 -11 0 -20 5 -20 10 0 6 9 10 20 10 11 0 20 5 20 10 0 6 -9 10 -20 10 -30 0 -24 18 8 23 25 4 25 4 -5 6 -33 1 -33 0 -33 -44z"/>
<path d="M2000 1421 c0 -44 10 -55 40 -46 16 5 20 15 20 48 -1 33 -3 38 -11 25 -12 -22 -29 -23 -29 -3 0 8 -4 15 -10 15 -5 0 -10 -18 -10 -39z m50 -21 c0 -5 -7 -10 -15 -10 -8 0 -15 5 -15 10 0 6 7 10 15 10 8 0 15 -4 15 -10z"/>
<path d="M2090 1425 c-15 -47 -5 -58 13 -14 l14 34 7 -32 c4 -18 11 -33 16 -33 12 0 -14 73 -27 77 -6 2 -16 -12 -23 -32z"/>
<path d="M2200 1441 c-12 -24 -4 -48 22 -62 20 -11 48 3 48 23 0 6 -7 5 -15 -2 -20 -17 -45 -5 -45 20 0 25 29 38 40 19 5 -7 12 -10 15 -7 12 12 -6 28 -30 28 -14 0 -29 -8 -35 -19z"/>
<path d="M2290 1415 c0 -41 2 -45 25 -45 14 0 25 5 25 10 0 6 -9 10 -20 10 -11 0 -20 5 -20 10 0 6 9 10 20 10 11 0 20 5 20 10 0 6 -9 10 -20 10 -30 0 -24 18 8 23 25 4 25 4 -5 6 -33 1 -33 0 -33 -44z"/>
<path d="M1155 1188 c-7 -55 -35 -309 -35 -325 0 -19 57 -16 64 3 3 9 6 37 7 62 0 26 4 70 7 97 l7 50 24 -112 c22 -104 26 -113 47 -113 26 0 33 18 55 144 16 84 25 68 34 -56 l7 -88 33 0 c32 0 33 1 28 38 -2 20 -12 105 -22 187 l-16 150 -32 3 c-34 3 -34 3 -53 -83 -6 -27 -16 -68 -22 -90 l-11 -40 -26 105 c-26 104 -26 105 -58 108 -30 3 -32 1 -38 -40z"/>
<path d="M1970 1040 l0 -190 40 0 c33 0 41 4 45 23 3 12 16 65 29 117 l22 95 23 -100 c12 -55 25 -108 27 -117 4 -13 16 -18 45 -18 l39 0 0 190 0 190 -30 0 -30 0 -1 -107 -1 -108 -26 108 c-23 95 -29 107 -47 105 -16 -3 -24 -21 -46 -113 l-27 -110 -1 113 -1 112 -30 0 -30 0 0 -190z"/>
<path d="M3190 1072 c-28 -28 -50 -85 -50 -130 0 -41 30 -92 54 -92 11 0 35 -8 51 -19 39 -24 150 -136 183 -184 18 -27 31 -37 44 -34 10 3 21 1 24 -4 5 -8 -10 -13 -29 -10 -5 1 -6 -4 -4 -11 19 -45 38 -127 52 -217 8 -57 23 -118 33 -135 26 -45 76 -68 135 -62 121 13 173 126 132 285 -17 67 -48 140 -81 192 -23 36 -23 37 -70 28 -62 -12 -69 -3 -10 12 25 6 46 15 46 19 0 11 -70 99 -102 128 -24 22 -25 22 -73 5 -27 -10 -64 -33 -82 -51 -18 -18 -33 -28 -33 -23 0 15 63 65 108 85 23 11 41 24 39 30 -6 18 -130 116 -155 122 -31 9 -66 -17 -98 -71 -14 -25 -29 -44 -32 -41 -7 8 55 100 78 114 11 7 18 17 15 23 -8 11 -120 69 -135 69 -7 0 -24 -13 -40 -28z m77 -69 c-4 -3 -7 0 -7 7 0 7 3 10 7 7 3 -4 3 -10 0 -14z m153 -63 c0 -5 -2 -10 -4 -10 -3 0 -8 5 -11 10 -3 6 -1 10 4 10 6 0 11 -4 11 -10z m-15 -30 c3 -5 1 -10 -4 -10 -6 0 -11 5 -11 10 0 6 2 10 4 10 3 0 8 -4 11 -10z m-140 -39 c3 -5 1 -12 -5 -16 -5 -3 -10 1 -10 9 0 18 6 21 15 7z m272 -88 c-4 -3 -7 0 -7 7 0 7 3 10 7 7 3 -4 3 -10 0 -14z m30 0 c-4 -3 -7 0 -7 7 0 7 3 10 7 7 3 -4 3 -10 0 -14z m-173 -38 c-4 -8 -10 -12 -15 -9 -11 6 -2 24 11 24 5 0 7 -7 4 -15z m203 -82 c-4 -3 -10 -3 -14 0 -3 4 0 7 7 7 7 0 10 -3 7 -7z m-50 -23 c-14 -11 -29 -20 -34 -20 -11 1 37 40 49 40 6 0 -1 -9 -15 -20z m170 -97 c-4 -3 -10 -3 -14 0 -3 4 0 7 7 7 7 0 10 -3 7 -7z m30 -10 c-4 -3 -7 0 -7 7 0 7 3 10 7 7 3 -4 3 -10 0 -14z m36 -174 c-6 -6 -20 -6 -38 1 -42 16 -101 3 -134 -30 -21 -22 -31 -26 -40 -17 -14 14 -15 30 -1 22 6 -4 26 3 45 15 22 13 61 24 103 28 65 7 85 1 65 -19z m-22 -112 c-15 -15 -45 3 -49 29 -3 18 -2 18 11 2 20 -25 37 -22 38 5 2 22 2 22 6 -2 3 -13 0 -28 -6 -34z m-91 3 c0 -11 -7 -23 -16 -27 -17 -6 -52 22 -41 34 4 3 14 -2 22 -13 14 -19 15 -18 21 4 8 27 14 28 14 2z"/>
<path d="M3441 584 c0 -11 3 -14 6 -6 3 7 2 16 -1 19 -3 4 -6 -2 -5 -13z"/>
</g>
<g id="layer103" fill="#775925" stroke="none">
<path d="M335 1786 c-42 -18 -83 -69 -91 -112 -10 -52 1 -101 40 -179 38 -76 140 -205 163 -205 26 0 131 59 152 86 12 15 24 24 28 21 9 -10 -49 -60 -108 -91 -30 -16 -56 -31 -58 -32 -6 -5 44 -48 106 -91 l52 -36 50 37 c27 20 56 50 63 66 13 30 28 40 28 18 0 -7 -27 -39 -61 -71 -56 -55 -59 -60 -42 -73 24 -18 157 -74 177 -74 21 0 54 46 68 94 11 40 28 70 28 51 0 -20 -42 -121 -57 -137 -18 -20 -19 -19 52 -37 69 -18 101 -14 120 16 34 52 30 145 -9 196 -9 11 -31 19 -60 22 -58 5 -164 60 -249 130 -73 60 -117 127 -168 254 -21 51 -48 100 -70 123 -31 33 -42 38 -80 38 -24 -1 -58 -7 -74 -14z m90 -46 c10 -11 13 -20 7 -20 -6 0 -14 5 -17 10 -10 17 -23 11 -28 -12 -3 -20 -4 -21 -11 -5 -5 10 -3 23 4 32 16 20 23 19 45 -5z m-85 -50 c11 -20 -3 -30 -15 -10 -11 18 -27 11 -22 -10 3 -11 1 -20 -3 -20 -12 0 -23 37 -15 50 11 17 44 11 55 -10z m161 -17 c12 -14 12 -16 -1 -11 -8 2 -23 -6 -34 -20 -22 -28 -110 -72 -143 -72 -13 0 -23 -5 -23 -12 0 -6 -3 -9 -6 -5 -3 3 -3 15 1 26 5 16 12 19 34 15 40 -8 110 30 124 67 13 33 28 37 48 12z m26 -200 c-4 -3 -10 -3 -14 0 -3 4 0 7 7 7 7 0 10 -3 7 -7z m134 -56 c-8 -8 -14 -7 -23 2 -10 11 -10 13 0 7 6 -4 12 -2 12 4 0 6 5 8 11 4 8 -4 8 -9 0 -17z m-284 -4 c-4 -3 -7 0 -7 7 0 7 3 10 7 7 3 -4 3 -10 0 -14z m40 0 c-4 -3 -7 0 -7 7 0 7 3 10 7 7 3 -4 3 -10 0 -14z m367 -108 c-4 -8 -8 -15 -10 -15 -2 0 -4 7 -4 15 0 8 4 15 10 15 5 0 7 -7 4 -15z m156 -81 c0 -8 -5 -12 -10 -9 -6 4 -8 11 -5 16 9 14 15 11 15 -7z m-323 -11 c-4 -3 -7 0 -7 7 0 7 3 10 7 7 3 -4 3 -10 0 -14z m190 -70 c-4 -3 -10 -3 -14 0 -3 4 0 7 7 7 7 0 10 -3 7 -7z m0 -30 c-4 -3 -10 -3 -14 0 -3 4 0 7 7 7 7 0 10 -3 7 -7z m160 -30 c-4 -3 -10 -3 -14 0 -3 4 0 7 7 7 7 0 10 -3 7 -7z"/>
<path d="M1261 1422 c-1 -41 0 -43 26 -40 24 3 27 7 29 42 1 33 -1 36 -11 22 -16 -21 -32 -21 -38 2 -3 9 -5 -2 -6 -26z m37 -20 c2 -7 -3 -12 -12 -12 -9 0 -16 7 -16 16 0 17 22 14 28 -4z"/>
<path d="M1410 1454 c0 -24 23 -75 33 -71 14 4 39 77 26 77 -5 0 -9 -7 -9 -15 0 -21 -27 -19 -39 3 -6 9 -11 12 -11 6z m40 -44 c0 -5 -2 -10 -4 -10 -3 0 -8 5 -11 10 -3 6 -1 10 4 10 6 0 11 -4 11 -10z"/>
<path d="M1734 1446 c-3 -8 -4 -25 -2 -38 2 -18 9 -23 32 -23 18 0 31 6 33 15 4 12 3 12 -5 2 -13 -19 -46 -11 -50 12 -5 24 12 40 35 32 15 -6 15 -8 3 -16 -13 -8 -12 -10 3 -10 10 0 17 8 17 20 0 16 -7 20 -30 20 -17 0 -33 -6 -36 -14z"/>
<path d="M1855 1450 c-4 -7 2 -9 19 -4 34 8 34 -9 0 -25 -14 -6 -24 -17 -21 -24 5 -17 37 -21 51 -7 8 9 6 11 -11 5 -13 -3 -23 -2 -23 4 0 5 9 13 21 16 12 4 19 14 17 23 -4 20 -43 28 -53 12z"/>
<path d="M2000 1420 c0 -38 2 -40 29 -40 28 0 30 2 29 43 -1 23 -3 34 -6 25 -4 -22 -32 -24 -32 -3 0 8 -4 15 -10 15 -5 0 -10 -18 -10 -40z m48 -18 c2 -7 -3 -12 -12 -12 -9 0 -16 7 -16 16 0 17 22 14 28 -4z"/>
<path d="M2204 1446 c-11 -30 1 -61 25 -64 13 -2 28 1 34 7 7 7 1 10 -19 8 -23 -2 -30 2 -32 21 -4 27 22 40 43 22 13 -11 14 -10 9 4 -8 20 -53 21 -60 2z"/>
<path d="M3190 1072 c-28 -28 -50 -85 -50 -130 0 -41 30 -92 54 -92 11 0 35 -8 51 -19 39 -24 150 -136 183 -184 18 -27 31 -37 44 -34 10 3 21 1 24 -4 5 -8 -10 -13 -29 -10 -5 1 -6 -4 -4 -11 19 -45 38 -127 52 -217 8 -57 23 -118 33 -135 26 -45 76 -68 135 -62 121 13 173 126 132 285 -17 67 -48 140 -81 192 -23 36 -23 37 -70 28 -62 -12 -69 -3 -10 12 25 6 46 15 46 19 0 11 -70 99 -102 128 -24 22 -25 22 -73 5 -27 -10 -64 -33 -82 -51 -18 -18 -33 -28 -33 -23 0 15 63 65 108 85 23 11 41 24 39 30 -6 18 -130 116 -155 122 -31 9 -66 -17 -98 -71 -14 -25 -29 -44 -32 -41 -7 8 55 100 78 114 11 7 18 17 15 23 -8 11 -120 69 -135 69 -7 0 -24 -13 -40 -28z m77 -69 c-4 -3 -7 0 -7 7 0 7 3 10 7 7 3 -4 3 -10 0 -14z m-40 -10 c-4 -3 -7 0 -7 7 0 7 3 10 7 7 3 -4 3 -10 0 -14z m193 -53 c0 -5 -2 -10 -4 -10 -3 0 -8 5 -11 10 -3 6 -1 10 4 10 6 0 11 -4 11 -10z m-15 -30 c3 -5 1 -10 -4 -10 -6 0 -11 5 -11 10 0 6 2 10 4 10 3 0 8 -4 11 -10z m-140 -39 c3 -5 1 -12 -5 -16 -5 -3 -10 1 -10 9 0 18 6 21 15 7z m272 -88 c-4 -3 -7 0 -7 7 0 7 3 10 7 7 3 -4 3 -10 0 -14z m30 0 c-4 -3 -7 0 -7 7 0 7 3 10 7 7 3 -4 3 -10 0 -14z m-173 -38 c-4 -8 -10 -12 -15 -9 -11 6 -2 24 11 24 5 0 7 -7 4 -15z m186 -86 c-13 -6 -33 -17 -42 -26 -10 -9 -21 -13 -24 -10 -8 8 56 47 76 46 8 0 4 -5 -10 -10z m137 -116 c-4 -3 -10 -3 -14 0 -3 4 0 7 7 7 7 0 10 -3 7 -7z m30 -10 c-4 -3 -7 0 -7 7 0 7 3 10 7 7 3 -4 3 -10 0 -14z m-150 -20 c-4 -3 -7 0 -7 7 0 7 3 10 7 7 3 -4 3 -10 0 -14z m-20 -20 c-4 -3 -10 -3 -14 0 -3 4 0 7 7 7 7 0 10 -3 7 -7z m206 -134 c-6 -6 -22 -5 -42 2 -43 15 -102 -2 -130 -38 -17 -21 -23 -23 -36 -13 -16 13 -21 35 -6 25 5 -3 26 5 47 17 23 13 61 24 103 27 64 6 83 -1 64 -20z m-22 -112 c-15 -15 -45 3 -49 29 -3 18 -2 18 11 2 20 -25 37 -22 38 5 2 22 2 22 6 -2 3 -13 0 -28 -6 -34z m-91 -8 c-6 -10 -17 -19 -24 -19 -17 0 -41 28 -32 37 3 4 13 -2 21 -13 14 -19 15 -18 21 3 3 13 10 20 15 17 5 -3 5 -14 -1 -25z"/>
</g>
<g id="layer104" fill="#815f25" stroke="none">
<path d="M335 1786 c-42 -18 -83 -69 -91 -112 -10 -52 1 -101 40 -179 38 -76 140 -205 163 -205 26 0 131 59 152 86 12 15 24 24 28 21 9 -10 -49 -60 -108 -91 -30 -16 -56 -31 -58 -32 -6 -5 44 -48 106 -91 l52 -36 50 37 c27 20 56 50 63 66 13 30 28 40 28 18 0 -7 -27 -39 -61 -71 -56 -55 -59 -60 -42 -73 24 -18 157 -74 177 -74 21 0 54 46 68 94 12 42 28 70 28 48 0 -20 -41 -116 -57 -134 -18 -20 -19 -19 52 -37 69 -18 101 -14 120 16 34 52 30 145 -9 196 -9 11 -31 19 -60 22 -58 5 -164 60 -249 130 -73 60 -117 127 -168 254 -21 51 -48 100 -70 123 -31 33 -42 38 -80 38 -24 -1 -58 -7 -74 -14z m90 -46 c10 -11 13 -20 7 -20 -6 0 -14 5 -17 10 -10 17 -23 11 -28 -12 -3 -20 -4 -21 -11 -5 -5 10 -3 23 4 32 16 20 23 19 45 -5z m-85 -50 c11 -20 -3 -30 -15 -10 -11 18 -27 11 -22 -10 3 -11 1 -20 -3 -20 -12 0 -23 37 -15 50 11 17 44 11 55 -10z m161 -17 c12 -14 12 -16 -1 -11 -8 2 -23 -6 -34 -20 -22 -28 -110 -72 -143 -72 -13 0 -23 -5 -23 -12 0 -6 -3 -9 -6 -5 -3 3 -3 15 1 26 5 16 12 20 30 15 38 -9 114 30 128 66 13 34 28 38 48 13z m26 -200 c-4 -3 -10 -3 -14 0 -3 4 0 7 7 7 7 0 10 -3 7 -7z m134 -56 c-8 -8 -14 -7 -23 2 -10 11 -10 13 0 7 6 -4 12 -2 12 4 0 6 5 8 11 4 8 -4 8 -9 0 -17z m-284 -4 c-4 -3 -7 0 -7 7 0 7 3 10 7 7 3 -4 3 -10 0 -14z m40 0 c-4 -3 -7 0 -7 7 0 7 3 10 7 7 3 -4 3 -10 0 -14z m367 -108 c-4 -8 -8 -15 -10 -15 -2 0 -4 7 -4 15 0 8 4 15 10 15 5 0 7 -7 4 -15z m-137 -82 c-4 -3 -7 0 -7 7 0 7 3 10 7 7 3 -4 3 -10 0 -14z m293 1 c0 -8 -5 -12 -10 -9 -6 4 -8 11 -5 16 9 14 15 11 15 -7z m-323 -11 c-4 -3 -7 0 -7 7 0 7 3 10 7 7 3 -4 3 -10 0 -14z m193 -63 c0 -5 -5 -10 -11 -10 -5 0 -7 5 -4 10 3 6 8 10 11 10 2 0 4 -4 4 -10z m-3 -37 c-4 -3 -10 -3 -14 0 -3 4 0 7 7 7 7 0 10 -3 7 -7z m160 -30 c-4 -3 -10 -3 -14 0 -3 4 0 7 7 7 7 0 10 -3 7 -7z"/>
<path d="M1105 1450 c-4 -7 2 -9 19 -4 17 4 26 2 26 -6 0 -6 -9 -14 -20 -17 -26 -7 -27 -43 -1 -43 11 0 22 4 25 9 4 5 -3 7 -14 4 -26 -7 -26 14 1 22 12 4 19 14 17 23 -4 20 -43 28 -53 12z"/>
<path d="M1262 1422 c-2 -42 -1 -43 25 -40 24 3 27 7 29 42 1 35 -1 37 -13 21 -16 -22 -17 -35 -3 -35 6 0 10 -4 10 -10 0 -5 -9 -10 -19 -10 -15 0 -21 8 -24 38 l-4 37 -1 -43z"/>
<path d="M1410 1456 c0 -21 25 -76 34 -73 5 2 15 21 23 43 11 33 11 36 -1 22 -7 -10 -18 -18 -24 -18 -6 0 -16 8 -21 18 -6 9 -11 13 -11 8z m40 -51 c0 -8 -2 -15 -4 -15 -2 0 -6 7 -10 15 -3 8 -1 15 4 15 6 0 10 -7 10 -15z"/>
<path d="M1600 1420 c0 -22 5 -40 10 -40 6 0 10 18 10 40 0 22 -4 40 -10 40 -5 0 -10 -18 -10 -40z"/>
<path d="M1734 1435 c-7 -30 1 -55 18 -55 9 0 9 3 0 12 -27 27 -2 72 29 53 8 -6 7 -10 -2 -16 -11 -7 -10 -9 4 -9 10 0 17 7 17 18 0 13 -9 18 -30 20 -24 2 -31 -2 -36 -23z"/>
<path d="M1856 1451 c-3 -4 6 -6 19 -3 33 6 32 -16 -1 -28 -14 -6 -24 -16 -21 -23 5 -17 37 -21 51 -7 8 9 6 11 -11 5 -29 -8 -29 2 -1 24 12 10 18 23 14 29 -8 14 -42 16 -50 3z"/>
<path d="M2000 1420 c0 -38 2 -40 29 -40 28 0 30 2 29 43 -1 23 -3 34 -6 25 -2 -10 -9 -18 -15 -18 -8 0 -7 -4 1 -12 16 -16 15 -28 -3 -28 -10 0 -15 11 -15 35 0 19 -4 35 -10 35 -5 0 -10 -18 -10 -40z"/>
<path d="M2092 1423 c-14 -47 -8 -55 8 -11 l13 33 10 -32 c5 -18 14 -33 19 -33 4 0 1 16 -7 36 -8 20 -15 38 -15 40 0 2 -4 4 -8 4 -5 0 -14 -17 -20 -37z"/>
<path d="M2160 1420 c0 -22 5 -40 10 -40 6 0 10 18 10 40 0 22 -4 40 -10 40 -5 0 -10 -18 -10 -40z"/>
<path d="M2204 1446 c-9 -22 0 -59 14 -62 7 -1 8 0 2 3 -16 7 -12 53 5 59 8 4 22 1 30 -6 13 -11 14 -10 9 4 -8 20 -53 21 -60 2z"/>
<path d="M1780 1390 c-9 -6 -10 -10 -3 -10 6 0 15 5 18 10 8 12 4 12 -15 0z"/>
<path d="M3190 1072 c-28 -28 -50 -85 -50 -130 0 -41 30 -92 54 -92 11 0 35 -8 51 -19 39 -24 150 -136 183 -184 18 -27 31 -37 44 -34 10 3 21 1 24 -4 5 -8 -10 -13 -29 -10 -5 1 -6 -4 -4 -11 19 -45 38 -127 52 -217 8 -57 23 -118 33 -135 26 -45 76 -68 135 -62 121 13 173 126 132 285 -17 67 -48 140 -81 192 -23 36 -23 37 -70 28 -62 -12 -69 -3 -10 12 25 6 46 15 46 19 0 11 -70 99 -102 128 -24 22 -25 22 -73 5 -27 -10 -64 -33 -82 -51 -18 -18 -33 -28 -33 -23 0 15 63 65 108 85 23 11 41 24 39 30 -6 18 -130 116 -155 122 -31 9 -66 -17 -98 -71 -14 -25 -29 -44 -32 -41 -7 8 55 100 78 114 11 7 18 17 15 23 -8 11 -120 69 -135 69 -7 0 -24 -13 -40 -28z m77 -69 c-4 -3 -7 0 -7 7 0 7 3 10 7 7 3 -4 3 -10 0 -14z m-40 -10 c-4 -3 -7 0 -7 7 0 7 3 10 7 7 3 -4 3 -10 0 -14z m193 -53 c0 -5 -2 -10 -4 -10 -3 0 -8 5 -11 10 -3 6 -1 10 4 10 6 0 11 -4 11 -10z m-15 -30 c3 -5 1 -10 -4 -10 -6 0 -11 5 -11 10 0 6 2 10 4 10 3 0 8 -4 11 -10z m-140 -39 c3 -5 1 -12 -5 -16 -5 -3 -10 1 -10 9 0 18 6 21 15 7z m272 -88 c-4 -3 -7 0 -7 7 0 7 3 10 7 7 3 -4 3 -10 0 -14z m30 0 c-4 -3 -7 0 -7 7 0 7 3 10 7 7 3 -4 3 -10 0 -14z m-173 -38 c-4 -8 -10 -12 -15 -9 -11 6 -2 24 11 24 5 0 7 -7 4 -15z m186 -86 c-13 -6 -33 -17 -42 -26 -10 -9 -21 -13 -24 -10 -8 8 56 47 76 46 8 0 4 -5 -10 -10z m137 -116 c-4 -3 -10 -3 -14 0 -3 4 0 7 7 7 7 0 10 -3 7 -7z m30 -10 c-4 -3 -7 0 -7 7 0 7 3 10 7 7 3 -4 3 -10 0 -14z m-147 -13 c0 -5 -2 -10 -4 -10 -3 0 -8 5 -11 10 -3 6 -1 10 4 10 6 0 11 -4 11 -10z m-23 -27 c-4 -3 -10 -3 -14 0 -3 4 0 7 7 7 7 0 10 -3 7 -7z m206 -134 c-6 -6 -21 -5 -40 2 -42 14 -106 -4 -132 -38 -17 -21 -23 -23 -36 -13 -16 13 -21 35 -6 25 5 -3 26 5 47 17 23 13 61 24 103 27 64 6 83 -1 64 -20z m-22 -112 c-15 -15 -45 3 -49 29 -3 18 -2 18 11 2 20 -25 37 -22 38 5 2 22 2 22 6 -2 3 -13 0 -28 -6 -34z m-91 -8 c-6 -10 -17 -19 -24 -19 -17 0 -41 28 -32 37 3 4 13 -2 21 -13 14 -19 15 -18 21 3 3 13 10 20 15 17 5 -3 5 -14 -1 -25z"/>
</g>
<g id="layer105" fill="#906b2b" stroke="none">
<path d="M335 1786 c-42 -18 -83 -69 -91 -112 -10 -52 1 -101 40 -179 38 -76 140 -205 163 -205 26 0 131 59 152 86 12 15 24 24 28 21 9 -10 -49 -60 -108 -91 -30 -16 -56 -31 -58 -32 -6 -5 44 -48 106 -91 l52 -36 50 37 c27 20 56 50 63 66 13 30 28 40 28 18 0 -7 -27 -39 -61 -71 -56 -55 -59 -60 -42 -73 24 -18 157 -74 177 -74 21 0 54 46 68 94 12 42 28 70 28 48 0 -20 -41 -116 -57 -134 -18 -20 -19 -19 52 -37 69 -18 101 -14 120 16 34 52 30 145 -9 196 -9 11 -31 19 -60 22 -58 5 -164 60 -249 130 -73 60 -117 127 -168 254 -21 51 -48 100 -70 123 -31 33 -42 38 -80 38 -24 -1 -58 -7 -74 -14z m90 -46 c10 -11 13 -20 7 -20 -6 0 -14 5 -17 10 -10 17 -23 11 -28 -12 -3 -20 -4 -21 -11 -5 -5 10 -3 23 4 32 16 20 23 19 45 -5z m-85 -50 c11 -20 -3 -30 -15 -10 -11 18 -27 11 -22 -10 3 -11 1 -20 -3 -20 -12 0 -23 37 -15 50 11 17 44 11 55 -10z m161 -17 c11 -13 11 -15 1 -12 -8 3 -30 -12 -51 -31 -34 -33 -95 -60 -135 -60 -9 0 -16 -5 -16 -12 0 -6 -3 -9 -6 -5 -3 3 -3 15 1 26 5 16 12 20 30 15 38 -9 114 30 128 66 13 34 28 38 48 13z m26 -200 c-4 -3 -10 -3 -14 0 -3 4 0 7 7 7 7 0 10 -3 7 -7z m134 -56 c-8 -8 -14 -7 -23 2 -10 11 -10 13 0 7 6 -4 12 -2 12 4 0 6 5 8 11 4 8 -4 8 -9 0 -17z m-284 -4 c-4 -3 -7 0 -7 7 0 7 3 10 7 7 3 -4 3 -10 0 -14z m40 0 c-4 -3 -7 0 -7 7 0 7 3 10 7 7 3 -4 3 -10 0 -14z m367 -108 c-4 -8 -8 -15 -10 -15 -2 0 -4 7 -4 15 0 8 4 15 10 15 5 0 7 -7 4 -15z m-137 -82 c-4 -3 -7 0 -7 7 0 7 3 10 7 7 3 -4 3 -10 0 -14z m293 1 c0 -8 -5 -12 -10 -9 -6 4 -8 11 -5 16 9 14 15 11 15 -7z m-323 -11 c-4 -3 -7 0 -7 7 0 7 3 10 7 7 3 -4 3 -10 0 -14z m193 -63 c0 -5 -5 -10 -11 -10 -5 0 -7 5 -4 10 3 6 8 10 11 10 2 0 4 -4 4 -10z m-3 -37 c-4 -3 -10 -3 -14 0 -3 4 0 7 7 7 7 0 10 -3 7 -7z m160 -30 c-4 -3 -10 -3 -14 0 -3 4 0 7 7 7 7 0 10 -3 7 -7z"/>
<path d="M1105 1450 c-4 -7 2 -9 19 -4 31 7 35 -10 6 -26 -20 -11 -28 -40 -10 -40 5 0 7 6 4 14 -3 9 3 17 16 21 13 4 20 13 18 23 -4 20 -43 28 -53 12z"/>
<path d="M1202 1428 c-1 -20 -8 -39 -14 -41 -7 -3 3 -5 22 -5 19 0 27 2 18 5 -11 3 -18 17 -21 41 l-4 37 -1 -37z"/>
<path d="M1262 1422 c-2 -42 -1 -43 25 -40 25 3 28 7 28 41 0 32 -2 35 -13 20 -8 -11 -9 -20 -2 -27 16 -16 12 -26 -9 -26 -15 0 -21 8 -24 38 l-4 37 -1 -43z"/>
<path d="M1340 1420 c0 -37 2 -40 28 -39 23 2 24 2 5 6 -13 2 -23 8 -23 13 0 5 10 11 23 13 l22 4 -22 2 c-13 0 -23 7 -23 15 0 8 10 17 23 19 19 4 18 4 -5 6 -26 1 -28 -2 -28 -39z"/>
<path d="M1414 1447 c3 -11 9 -30 12 -43 9 -34 25 -25 41 22 11 33 11 36 -1 22 -7 -10 -18 -18 -24 -18 -6 0 -16 8 -22 18 -11 16 -11 16 -6 -1z m36 -42 c0 -8 -2 -15 -4 -15 -2 0 -6 7 -10 15 -3 8 -1 15 4 15 6 0 10 -7 10 -15z"/>
<path d="M1603 1420 c0 -25 2 -35 4 -22 2 12 2 32 0 45 -2 12 -4 2 -4 -23z"/>
<path d="M1930 1420 c0 -37 2 -40 28 -39 23 2 24 2 5 6 -13 2 -23 8 -23 13 0 5 10 11 23 13 l22 4 -22 2 c-13 0 -23 7 -23 15 0 8 10 17 23 19 19 4 18 4 -5 6 -26 1 -28 -2 -28 -39z"/>
<path d="M2001 1423 c-1 -41 1 -43 28 -43 27 0 28 2 28 42 0 34 -1 38 -8 20 -5 -12 -6 -29 -3 -37 4 -11 0 -15 -16 -15 -16 0 -20 4 -16 15 3 8 1 25 -4 37 -7 19 -9 16 -9 -19z"/>
<path d="M2092 1423 c-14 -46 -8 -56 7 -11 9 26 14 30 21 18 11 -17 13 -9 4 14 -10 25 -20 19 -32 -21z"/>
<path d="M2163 1420 c0 -25 2 -35 4 -22 2 12 2 32 0 45 -2 12 -4 2 -4 -23z"/>
<path d="M2290 1420 c0 -37 2 -40 28 -39 23 2 24 2 5 6 -13 2 -23 8 -23 13 0 5 10 11 23 13 l22 4 -22 2 c-13 0 -23 7 -23 15 0 8 10 17 23 19 19 4 18 4 -5 6 -26 1 -28 -2 -28 -39z"/>
<path d="M2130 1401 c0 -6 4 -13 10 -16 6 -3 7 1 4 9 -7 18 -14 21 -14 7z"/>
<path d="M1890 1390 c-9 -6 -10 -10 -3 -10 6 0 15 5 18 10 8 12 4 12 -15 0z"/>
<path d="M3190 1072 c-28 -28 -50 -85 -50 -130 0 -41 30 -92 54 -92 11 0 35 -8 51 -19 39 -24 150 -136 183 -184 18 -27 31 -37 44 -34 10 3 21 1 24 -4 5 -8 -10 -13 -29 -10 -5 1 -6 -4 -4 -11 19 -45 38 -127 52 -217 8 -57 23 -118 33 -135 26 -45 76 -68 135 -62 121 13 173 126 132 285 -17 67 -48 140 -81 192 -23 36 -23 37 -70 28 -62 -12 -69 -3 -10 12 25 6 46 15 46 19 0 11 -70 99 -102 128 -24 22 -25 22 -73 5 -27 -10 -64 -33 -82 -51 -18 -18 -33 -28 -33 -23 0 15 63 65 108 85 23 11 41 24 39 30 -6 18 -130 116 -155 122 -31 9 -66 -17 -98 -71 -14 -25 -29 -44 -32 -41 -7 8 55 100 78 114 11 7 18 17 15 23 -8 11 -120 69 -135 69 -7 0 -24 -13 -40 -28z m77 -69 c-4 -3 -7 0 -7 7 0 7 3 10 7 7 3 -4 3 -10 0 -14z m-32 -3 c3 -5 1 -10 -4 -10 -6 0 -11 5 -11 10 0 6 2 10 4 10 3 0 8 -4 11 -10z m185 -60 c0 -5 -2 -10 -4 -10 -3 0 -8 5 -11 10 -3 6 -1 10 4 10 6 0 11 -4 11 -10z m-15 -30 c3 -5 1 -10 -4 -10 -6 0 -11 5 -11 10 0 6 2 10 4 10 3 0 8 -4 11 -10z m-140 -39 c3 -5 1 -12 -5 -16 -5 -3 -10 1 -10 9 0 18 6 21 15 7z m272 -88 c-4 -3 -7 0 -7 7 0 7 3 10 7 7 3 -4 3 -10 0 -14z m30 0 c-4 -3 -7 0 -7 7 0 7 3 10 7 7 3 -4 3 -10 0 -14z m-173 -38 c-4 -8 -10 -12 -15 -9 -11 6 -2 24 11 24 5 0 7 -7 4 -15z m180 -89 c-18 -8 -35 -19 -38 -25 -4 -6 -12 -11 -18 -11 -15 0 12 31 37 40 34 15 52 10 19 -4z m143 -113 c-4 -3 -10 -3 -14 0 -3 4 0 7 7 7 7 0 10 -3 7 -7z m30 -10 c-4 -3 -7 0 -7 7 0 7 3 10 7 7 3 -4 3 -10 0 -14z m-147 -13 c0 -5 -2 -10 -4 -10 -3 0 -8 5 -11 10 -3 6 -1 10 4 10 6 0 11 -4 11 -10z m-23 -27 c-4 -3 -10 -3 -14 0 -3 4 0 7 7 7 7 0 10 -3 7 -7z m206 -134 c-6 -6 -21 -5 -40 2 -42 14 -106 -4 -132 -38 -17 -21 -23 -23 -36 -13 -16 13 -21 35 -6 25 5 -3 26 5 47 17 23 13 61 24 103 27 64 6 83 -1 64 -20z m-22 -112 c-15 -15 -45 3 -49 29 -3 18 -2 18 11 2 20 -25 37 -22 38 5 2 22 2 22 6 -2 3 -13 0 -28 -6 -34z m-91 -8 c-6 -10 -17 -19 -24 -19 -18 0 -41 28 -31 38 4 4 10 1 12 -5 7 -18 33 -16 33 3 0 8 5 12 10 9 7 -4 7 -13 0 -26z"/>
</g>
<g id="layer106" fill="#a77c31" stroke="none">
<path d="M335 1786 c-42 -18 -83 -69 -91 -112 -10 -52 1 -101 40 -179 38 -76 140 -205 163 -205 26 0 131 59 152 86 12 15 24 24 28 21 9 -10 -49 -60 -108 -91 -30 -16 -56 -31 -58 -32 -6 -5 44 -48 106 -91 l52 -36 50 37 c27 20 56 50 63 66 13 30 28 40 28 18 0 -7 -27 -39 -61 -71 -56 -55 -59 -60 -42 -73 24 -18 157 -74 177 -74 21 0 54 46 68 94 12 42 28 70 28 48 0 -20 -41 -116 -57 -134 -18 -20 -19 -19 52 -37 69 -18 101 -14 120 16 34 52 30 145 -9 196 -9 11 -31 19 -60 22 -58 5 -164 60 -249 130 -73 60 -117 127 -168 254 -21 51 -48 100 -70 123 -31 33 -42 38 -80 38 -24 -1 -58 -7 -74 -14z m90 -46 c10 -11 13 -20 7 -20 -6 0 -14 5 -17 10 -10 17 -23 11 -28 -12 -3 -20 -4 -21 -11 -5 -5 10 -3 23 4 32 16 20 23 19 45 -5z m-85 -50 c11 -20 -3 -30 -15 -10 -11 18 -27 11 -22 -10 3 -11 1 -20 -3 -20 -12 0 -23 37 -15 50 11 17 44 11 55 -10z m161 -17 c12 -15 12 -16 -3 -11 -9 4 -19 1 -22 -7 -10 -27 -88 -74 -132 -81 -24 -3 -44 -11 -44 -17 0 -6 -3 -8 -6 -4 -3 3 -3 15 1 26 5 16 12 20 30 15 38 -9 114 30 128 66 13 34 28 38 48 13z m24 -193 c3 -5 1 -10 -4 -10 -6 0 -11 5 -11 10 0 6 2 10 4 10 3 0 8 -4 11 -10z m136 -63 c-8 -8 -14 -7 -23 2 -10 11 -10 13 0 7 6 -4 12 -2 12 4 0 6 5 8 11 4 8 -4 8 -9 0 -17z m-284 -4 c-4 -3 -7 0 -7 7 0 7 3 10 7 7 3 -4 3 -10 0 -14z m40 0 c-4 -3 -7 0 -7 7 0 7 3 10 7 7 3 -4 3 -10 0 -14z m367 -108 c-4 -8 -8 -15 -10 -15 -2 0 -4 7 -4 15 0 8 4 15 10 15 5 0 7 -7 4 -15z m-137 -82 c-4 -3 -7 0 -7 7 0 7 3 10 7 7 3 -4 3 -10 0 -14z m293 1 c0 -8 -5 -12 -10 -9 -6 4 -8 11 -5 16 9 14 15 11 15 -7z m-323 -11 c-4 -3 -7 0 -7 7 0 7 3 10 7 7 3 -4 3 -10 0 -14z m193 -63 c0 -5 -5 -10 -11 -10 -5 0 -7 5 -4 10 3 6 8 10 11 10 2 0 4 -4 4 -10z m-3 -37 c-4 -3 -10 -3 -14 0 -3 4 0 7 7 7 7 0 10 -3 7 -7z m190 -10 c-4 -3 -10 -3 -14 0 -3 4 0 7 7 7 7 0 10 -3 7 -7z m-27 -23 c0 -5 -2 -10 -4 -10 -3 0 -8 5 -11 10 -3 6 -1 10 4 10 6 0 11 -4 11 -10z"/>
<path d="M1105 1450 c-4 -7 2 -9 19 -4 31 7 35 -10 6 -26 -11 -6 -19 -18 -19 -28 1 -16 2 -16 6 0 2 9 13 20 24 23 12 4 19 14 17 23 -4 20 -43 28 -53 12z"/>
<path d="M1200 1420 c0 -22 3 -40 8 -40 4 0 6 18 4 40 -2 22 -6 40 -8 40 -2 0 -4 -18 -4 -40z"/>
<path d="M1464 1445 c-4 -8 -15 -15 -25 -15 -10 0 -19 -5 -19 -11 0 -5 5 -7 11 -3 6 3 15 1 19 -6 5 -8 11 -1 18 19 11 31 7 45 -4 16z"/>
<path d="M1501 1423 c-1 -51 12 -56 26 -10 l10 32 13 -32 c17 -46 30 -41 29 10 l-2 42 -6 -35 -7 -35 -8 33 c-9 39 -23 41 -33 5 l-7 -28 -7 30 c-6 27 -7 26 -8 -12z"/>
<path d="M1641 1423 c-1 -51 12 -55 36 -10 l17 32 7 -35 6 -35 2 43 c1 50 -12 54 -36 10 l-17 -33 -7 35 -6 35 -2 -42z"/>
<path d="M1740 1445 c-14 -17 -5 -65 12 -65 9 0 9 3 0 12 -27 27 -2 72 29 53 8 -6 7 -10 -2 -16 -11 -7 -10 -9 4 -9 10 0 17 7 17 18 0 22 -43 27 -60 7z"/>
<path d="M1856 1451 c-3 -4 6 -6 19 -3 33 6 33 -16 0 -28 -26 -10 -32 -24 -15 -35 6 -4 9 -2 8 3 -2 5 8 18 21 29 14 11 21 25 17 31 -8 14 -42 16 -50 3z"/>
<path d="M2049 1448 c-5 -44 -4 -68 2 -68 3 0 6 18 6 40 0 37 -5 56 -8 28z"/>
<path d="M2092 1423 c-15 -50 -9 -52 11 -3 8 22 12 40 8 40 -4 0 -13 -17 -19 -37z"/>
<path d="M2204 1446 c-9 -24 0 -59 16 -63 12 -4 12 -3 2 5 -22 15 -11 57 15 56 12 0 20 3 17 8 -8 13 -44 9 -50 -6z"/>
<path d="M1297 1434 c-4 -4 -2 -14 5 -21 9 -11 9 -17 -3 -24 -9 -5 -10 -9 -2 -9 6 0 14 4 17 9 8 12 -8 54 -17 45z"/>
<path d="M1894 1388 c-4 -7 -3 -8 4 -4 7 4 12 9 12 12 0 8 -9 4 -16 -8z"/>
<path d="M2245 1390 c-3 -5 -2 -10 4 -10 5 0 13 5 16 10 3 6 2 10 -4 10 -5 0 -13 -4 -16 -10z"/>
<path d="M3190 1072 c-28 -28 -50 -85 -50 -130 0 -41 30 -92 54 -92 11 0 35 -8 51 -19 39 -24 150 -136 183 -184 18 -27 31 -37 44 -34 10 3 21 1 24 -4 5 -8 -10 -13 -29 -10 -5 1 -6 -4 -4 -11 19 -45 38 -127 52 -217 8 -57 23 -118 33 -135 26 -45 76 -68 135 -62 121 13 173 126 132 285 -17 67 -48 140 -81 192 -23 36 -23 37 -70 28 -62 -12 -69 -3 -10 12 25 6 46 15 46 19 0 11 -70 99 -102 128 -24 22 -25 22 -73 5 -27 -10 -64 -33 -82 -51 -18 -18 -33 -28 -33 -23 0 15 63 65 108 85 23 11 41 24 39 30 -6 18 -130 116 -155 122 -31 9 -66 -17 -98 -71 -14 -25 -29 -44 -32 -41 -7 8 55 100 78 114 11 7 18 17 15 23 -8 11 -120 69 -135 69 -7 0 -24 -13 -40 -28z m77 -69 c-4 -3 -7 0 -7 7 0 7 3 10 7 7 3 -4 3 -10 0 -14z m-32 -3 c3 -5 1 -10 -4 -10 -6 0 -11 5 -11 10 0 6 2 10 4 10 3 0 8 -4 11 -10z m185 -60 c0 -5 -2 -10 -4 -10 -3 0 -8 5 -11 10 -3 6 -1 10 4 10 6 0 11 -4 11 -10z m-15 -30 c3 -5 1 -10 -4 -10 -6 0 -11 5 -11 10 0 6 2 10 4 10 3 0 8 -4 11 -10z m-140 -39 c3 -5 1 -12 -5 -16 -5 -3 -10 1 -10 9 0 18 6 21 15 7z m272 -88 c-4 -3 -7 0 -7 7 0 7 3 10 7 7 3 -4 3 -10 0 -14z m30 0 c-4 -3 -7 0 -7 7 0 7 3 10 7 7 3 -4 3 -10 0 -14z m-173 -38 c-4 -8 -10 -12 -15 -9 -11 6 -2 24 11 24 5 0 7 -7 4 -15z m180 -89 c-18 -8 -35 -19 -38 -25 -4 -6 -12 -11 -18 -11 -15 0 12 31 37 40 34 15 52 10 19 -4z m143 -113 c-4 -3 -10 -3 -14 0 -3 4 0 7 7 7 7 0 10 -3 7 -7z m30 -10 c-4 -3 -7 0 -7 7 0 7 3 10 7 7 3 -4 3 -10 0 -14z m-147 -13 c0 -5 -2 -10 -4 -10 -3 0 -8 5 -11 10 -3 6 -1 10 4 10 6 0 11 -4 11 -10z m-23 -27 c-4 -3 -10 -3 -14 0 -3 4 0 7 7 7 7 0 10 -3 7 -7z m206 -134 c-6 -6 -20 -6 -37 1 -39 14 -106 -3 -134 -35 -18 -22 -25 -25 -37 -15 -16 13 -21 35 -6 25 5 -3 27 5 48 17 25 15 61 25 103 28 63 5 82 -2 63 -21z m-22 -112 c-15 -15 -45 3 -49 29 -3 18 -2 18 11 2 20 -25 37 -22 38 5 2 22 2 22 6 -2 3 -13 0 -28 -6 -34z m-91 -12 c-7 -8 -18 -15 -25 -15 -17 0 -40 29 -30 38 4 4 10 1 12 -5 7 -19 33 -16 33 4 0 13 3 14 12 5 8 -8 8 -15 -2 -27z"/>
</g>
<g id="layer107" fill="#b68735" stroke="none">
<path d="M335 1786 c-42 -18 -83 -69 -91 -112 -10 -52 1 -101 40 -179 38 -76 140 -205 163 -205 25 0 133 62 153 88 11 14 23 22 27 19 9 -10 -49 -60 -108 -91 -30 -16 -56 -31 -58 -32 -6 -5 44 -48 106 -91 l52 -36 38 28 c45 34 82 75 83 93 0 6 5 12 10 12 23 0 6 -28 -51 -83 -56 -55 -59 -60 -42 -73 24 -18 157 -74 177 -74 22 0 55 47 68 97 10 40 28 68 28 44 0 -19 -42 -116 -57 -133 -18 -20 -19 -19 52 -37 69 -18 101 -14 120 16 34 52 30 145 -9 196 -9 11 -31 19 -60 22 -58 5 -164 60 -249 130 -73 60 -117 127 -168 254 -21 51 -48 100 -70 123 -31 33 -42 38 -80 38 -24 -1 -58 -7 -74 -14z m90 -46 c10 -11 13 -20 7 -20 -6 0 -14 5 -17 10 -10 17 -23 11 -28 -12 -3 -20 -4 -21 -11 -5 -5 10 -3 23 4 32 16 20 23 19 45 -5z m-85 -50 c11 -20 -3 -30 -15 -10 -11 18 -27 11 -22 -10 3 -11 1 -20 -3 -20 -12 0 -23 37 -15 50 11 17 44 11 55 -10z m161 -17 c12 -14 12 -16 -1 -11 -8 2 -25 -9 -39 -25 -29 -34 -93 -66 -133 -67 -16 0 -28 -5 -28 -12 0 -6 -3 -9 -6 -5 -3 3 -3 15 1 26 5 16 12 20 30 15 38 -9 114 30 128 66 13 34 28 38 48 13z m24 -193 c3 -5 1 -10 -4 -10 -6 0 -11 5 -11 10 0 6 2 10 4 10 3 0 8 -4 11 -10z m136 -63 c-8 -8 -14 -7 -23 2 -10 11 -10 13 0 7 6 -4 12 -2 12 4 0 6 5 8 11 4 8 -4 8 -9 0 -17z m-284 -4 c-4 -3 -7 0 -7 7 0 7 3 10 7 7 3 -4 3 -10 0 -14z m43 7 c0 -5 -2 -10 -4 -10 -3 0 -8 5 -11 10 -3 6 -1 10 4 10 6 0 11 -4 11 -10z m364 -115 c-4 -8 -8 -15 -10 -15 -2 0 -4 7 -4 15 0 8 4 15 10 15 5 0 7 -7 4 -15z m-134 -75 c0 -5 -5 -10 -11 -10 -5 0 -7 5 -4 10 3 6 8 10 11 10 2 0 4 -4 4 -10z m290 -6 c0 -8 -5 -12 -10 -9 -6 4 -8 11 -5 16 9 14 15 11 15 -7z m-323 -11 c-4 -3 -7 0 -7 7 0 7 3 10 7 7 3 -4 3 -10 0 -14z m193 -63 c0 -5 -5 -10 -11 -10 -5 0 -7 5 -4 10 3 6 8 10 11 10 2 0 4 -4 4 -10z m-3 -37 c-4 -3 -10 -3 -14 0 -3 4 0 7 7 7 7 0 10 -3 7 -7z m190 -10 c-4 -3 -10 -3 -14 0 -3 4 0 7 7 7 7 0 10 -3 7 -7z m-27 -23 c0 -5 -2 -10 -4 -10 -3 0 -8 5 -11 10 -3 6 -1 10 4 10 6 0 11 -4 11 -10z"/>
<path d="M1110 1452 c0 -6 9 -8 20 -5 11 3 20 0 20 -5 0 -6 -9 -16 -20 -22 -11 -6 -19 -18 -19 -28 1 -16 2 -16 6 0 2 9 13 20 24 23 27 9 20 39 -9 43 -12 2 -22 -1 -22 -6z"/>
<path d="M1501 1421 c-1 -28 3 -41 8 -35 6 5 6 24 1 44 l-8 35 -1 -44z"/>
<path d="M1569 1425 c-6 -40 -4 -53 7 -43 3 3 4 23 2 44 l-3 39 -6 -40z"/>
<path d="M1641 1423 c0 -24 3 -43 8 -43 11 0 54 71 47 77 -3 3 -13 -12 -23 -32 l-18 -38 -6 39 -6 39 -2 -42z"/>
<path d="M1740 1445 c-6 -8 -10 -22 -7 -32 4 -14 5 -13 6 5 1 13 10 26 24 32 15 6 17 9 6 9 -9 1 -22 -6 -29 -14z"/>
<path d="M1856 1451 c-3 -4 6 -6 21 -3 23 4 25 2 19 -14 -5 -14 -4 -16 5 -7 6 6 8 16 5 22 -8 13 -43 15 -50 2z"/>
<path d="M2049 1448 c-4 -41 -4 -67 0 -62 7 6 11 74 5 74 -2 0 -5 -6 -5 -12z"/>
<path d="M2200 1421 c0 -17 4 -32 8 -35 4 -2 6 11 4 30 -5 42 -12 45 -12 5z"/>
<path d="M1301 1424 c0 -11 3 -14 6 -6 3 7 2 16 -1 19 -3 4 -6 -2 -5 -13z"/>
<path d="M2010 1420 c0 -7 3 -10 7 -7 3 4 3 10 0 14 -4 3 -7 0 -7 -7z"/>
<path d="M2090 1420 c0 -7 3 -10 7 -7 3 4 3 10 0 14 -4 3 -7 0 -7 -7z"/>
<path d="M1864 1408 c-4 -7 -3 -8 4 -4 7 4 12 9 12 12 0 8 -9 4 -16 -8z"/>
<path d="M1304 1388 c-4 -7 -3 -8 4 -4 12 7 16 16 8 16 -3 0 -8 -5 -12 -12z"/>
<path d="M1430 1390 c0 -5 5 -10 11 -10 5 0 7 5 4 10 -3 6 -8 10 -11 10 -2 0 -4 -4 -4 -10z"/>
<path d="M2080 1390 c0 -7 3 -10 7 -7 3 4 3 10 0 14 -4 3 -7 0 -7 -7z"/>
<path d="M1203 1383 c4 -3 10 -3 14 0 3 4 0 7 -7 7 -7 0 -10 -3 -7 -7z"/>
<path d="M3190 1072 c-28 -28 -50 -85 -50 -130 0 -41 30 -92 54 -92 11 0 35 -8 51 -19 39 -24 150 -136 183 -184 18 -27 31 -37 44 -34 10 3 21 1 24 -4 5 -8 -10 -13 -29 -10 -5 1 -6 -4 -4 -11 19 -45 38 -127 52 -217 8 -57 23 -118 33 -135 26 -45 76 -68 135 -62 121 13 173 126 132 285 -17 67 -48 140 -81 192 -23 36 -23 37 -70 28 -62 -12 -69 -3 -10 12 25 6 46 15 46 19 0 11 -70 99 -102 128 -24 22 -25 22 -73 5 -27 -10 -63 -33 -82 -52 -18 -19 -33 -29 -33 -24 0 19 48 59 100 83 28 13 49 28 47 34 -6 18 -130 116 -155 122 -31 9 -66 -17 -98 -71 -14 -25 -29 -44 -32 -41 -7 8 55 100 78 114 11 7 18 17 15 23 -8 11 -120 69 -135 69 -7 0 -24 -13 -40 -28z m77 -69 c-4 -3 -7 0 -7 7 0 7 3 10 7 7 3 -4 3 -10 0 -14z m-32 -3 c3 -5 1 -10 -4 -10 -6 0 -11 5 -11 10 0 6 2 10 4 10 3 0 8 -4 11 -10z m185 -60 c0 -5 -2 -10 -4 -10 -3 0 -8 5 -11 10 -3 6 -1 10 4 10 6 0 11 -4 11 -10z m-15 -30 c3 -5 1 -10 -4 -10 -6 0 -11 5 -11 10 0 6 2 10 4 10 3 0 8 -4 11 -10z m-140 -39 c3 -5 1 -12 -5 -16 -5 -3 -10 1 -10 9 0 18 6 21 15 7z m272 -88 c-4 -3 -7 0 -7 7 0 7 3 10 7 7 3 -4 3 -10 0 -14z m30 0 c-4 -3 -7 0 -7 7 0 7 3 10 7 7 3 -4 3 -10 0 -14z m-173 -38 c-4 -8 -10 -12 -15 -9 -11 6 -2 24 11 24 5 0 7 -7 4 -15z m196 -82 c-8 -3 -28 -15 -43 -26 -16 -10 -30 -17 -33 -14 -9 9 48 47 70 46 15 0 16 -2 6 -6z m127 -120 c-4 -3 -10 -3 -14 0 -3 4 0 7 7 7 7 0 10 -3 7 -7z m30 -10 c-4 -3 -7 0 -7 7 0 7 3 10 7 7 3 -4 3 -10 0 -14z m-147 -13 c0 -5 -2 -10 -4 -10 -3 0 -8 5 -11 10 -3 6 -1 10 4 10 6 0 11 -4 11 -10z m-23 -27 c-4 -3 -10 -3 -14 0 -3 4 0 7 7 7 7 0 10 -3 7 -7z m206 -134 c-6 -6 -19 -6 -33 -1 -39 15 -111 -2 -137 -33 -19 -22 -26 -25 -38 -15 -16 13 -21 35 -6 25 5 -3 27 5 48 17 25 15 61 25 103 28 63 5 82 -2 63 -21z m-22 -112 c-15 -15 -45 3 -49 29 -3 18 -2 18 11 2 20 -25 37 -22 38 5 2 22 2 22 6 -2 3 -13 0 -28 -6 -34z m-83 7 c-5 -30 -35 -41 -55 -22 -9 10 -13 21 -9 25 5 5 11 2 13 -4 6 -18 33 -16 33 2 0 8 5 15 11 15 6 0 9 -7 7 -16z"/>
</g>
<g id="layer108" fill="#000000" stroke="none">
<path d="M335 1786 c-42 -18 -83 -69 -91 -112 -10 -52 1 -101 40 -179 38 -76 140 -205 163 -205 25 0 133 62 153 88 11 14 23 22 27 19 9 -10 -49 -60 -108 -91 -30 -16 -56 -31 -58 -32 -6 -5 44 -48 106 -91 l52 -36 38 28 c45 34 82 75 83 93 0 12 20 18 20 6 0 -17 -37 -63 -76 -94 -24 -19 -44 -38 -44 -42 0 -10 140 -77 177 -84 25 -5 34 -1 52 22 12 15 26 47 33 71 10 43 28 68 28 40 0 -20 -39 -108 -58 -129 -17 -20 -18 -19 53 -37 69 -18 101 -14 120 16 34 52 30 145 -9 196 -9 11 -31 19 -60 22 -58 5 -164 60 -249 130 -73 60 -117 127 -168 254 -21 51 -48 100 -70 123 -31 33 -42 38 -80 38 -24 -1 -58 -7 -74 -14z m90 -46 c10 -11 13 -20 7 -20 -6 0 -14 5 -17 10 -10 17 -23 11 -28 -12 -3 -20 -4 -21 -11 -5 -5 10 -3 23 4 32 16 20 23 19 45 -5z m-85 -50 c11 -20 -3 -30 -15 -10 -11 18 -27 11 -22 -10 3 -11 1 -20 -3 -20 -12 0 -23 37 -15 50 11 17 44 11 55 -10z m161 -17 c12 -14 12 -16 -1 -11 -8 2 -25 -9 -39 -25 -29 -34 -93 -66 -133 -67 -16 0 -28 -5 -28 -12 0 -6 -3 -9 -6 -5 -3 3 -3 14 0 24 4 14 16 18 45 18 45 0 109 39 117 73 7 26 26 29 45 5z m24 -193 c3 -5 1 -10 -4 -10 -6 0 -11 5 -11 10 0 6 2 10 4 10 3 0 8 -4 11 -10z m136 -63 c-8 -8 -14 -7 -23 2 -10 11 -10 13 0 7 6 -4 12 -2 12 4 0 6 5 8 11 4 8 -4 8 -9 0 -17z m-284 -4 c-4 -3 -7 0 -7 7 0 7 3 10 7 7 3 -4 3 -10 0 -14z m43 7 c0 -5 -4 -10 -10 -10 -5 0 -10 5 -10 10 0 6 5 10 10 10 6 0 10 -4 10 -10z m364 -115 c-4 -8 -8 -15 -10 -15 -2 0 -4 7 -4 15 0 8 4 15 10 15 5 0 7 -7 4 -15z m-134 -75 c0 -5 -5 -10 -11 -10 -5 0 -7 5 -4 10 3 6 8 10 11 10 2 0 4 -4 4 -10z m290 -6 c0 -8 -5 -12 -10 -9 -6 4 -8 11 -5 16 9 14 15 11 15 -7z m-323 -11 c-4 -3 -7 0 -7 7 0 7 3 10 7 7 3 -4 3 -10 0 -14z m193 -63 c0 -5 -5 -10 -11 -10 -5 0 -7 5 -4 10 3 6 8 10 11 10 2 0 4 -4 4 -10z m-3 -37 c-4 -3 -10 -3 -14 0 -3 4 0 7 7 7 7 0 10 -3 7 -7z m193 -13 c0 -5 -2 -10 -4 -10 -3 0 -8 5 -11 10 -3 6 -1 10 4 10 6 0 11 -4 11 -10z m-30 -21 c0 -6 -4 -7 -10 -4 -5 3 -10 11 -10 16 0 6 5 7 10 4 6 -3 10 -11 10 -16z"/>
<path d="M1144 1440 c0 -13 4 -16 10 -10 7 7 7 13 0 20 -6 6 -10 3 -10 -10z"/>
<path d="M1640 1420 c0 -22 3 -40 8 -40 4 0 6 18 4 40 -2 22 -6 40 -8 40 -2 0 -4 -18 -4 -40z"/>
<path d="M1742 1448 c-7 -7 -11 -21 -11 -32 1 -21 1 -21 6 -1 3 11 10 26 15 33 13 15 6 16 -10 0z"/>
<path d="M1790 1446 c0 -8 -6 -17 -12 -19 -8 -3 -6 -6 5 -6 11 -1 17 6 17 19 0 11 -2 20 -5 20 -3 0 -5 -6 -5 -14z"/>
<path d="M1856 1451 c-3 -4 6 -6 19 -3 14 2 25 6 25 8 0 8 -39 4 -44 -5z"/>
<path d="M2047 1441 c-4 -17 -3 -21 5 -13 5 5 8 16 6 23 -3 8 -7 3 -11 -10z"/>
<path d="M1460 1442 c0 -7 -9 -12 -20 -12 -11 0 -20 -4 -20 -10 0 -5 7 -7 15 -4 9 4 15 0 16 -7 0 -8 5 -3 10 10 5 13 7 26 4 29 -3 3 -5 0 -5 -6z"/>
<path d="M1300 1430 c0 -7 3 -10 7 -7 3 4 3 10 0 14 -4 3 -7 0 -7 -7z"/>
<path d="M1670 1420 c-6 -11 -8 -20 -6 -20 3 0 10 9 16 20 6 11 8 20 6 20 -3 0 -10 -9 -16 -20z"/>
<path d="M1894 1428 c-4 -7 -3 -8 4 -4 12 7 16 16 8 16 -3 0 -8 -5 -12 -12z"/>
<path d="M2120 1430 c0 -7 3 -10 7 -7 3 4 3 10 0 14 -4 3 -7 0 -7 -7z"/>
<path d="M2200 1416 c0 -14 4 -27 8 -30 5 -3 6 8 4 25 -5 35 -12 38 -12 5z"/>
<path d="M1500 1389 c0 -5 5 -7 10 -4 6 3 10 8 10 11 0 2 -4 4 -10 4 -5 0 -10 -5 -10 -11z"/>
<path d="M3190 1072 c-28 -28 -50 -85 -50 -130 0 -41 30 -92 54 -92 11 0 35 -8 51 -19 39 -24 150 -136 183 -184 18 -27 31 -37 44 -34 10 3 21 1 24 -4 5 -8 -10 -13 -29 -10 -5 1 -6 -4 -4 -11 19 -45 38 -127 52 -217 8 -57 23 -118 33 -135 26 -45 76 -68 135 -62 121 13 173 126 132 285 -17 67 -48 140 -81 192 -23 36 -23 37 -70 28 -62 -12 -69 -3 -10 12 25 6 46 15 46 19 0 11 -71 99 -102 128 l-25 23 -49 -19 c-26 -11 -63 -34 -81 -53 -18 -18 -33 -28 -33 -22 0 19 48 58 100 83 28 13 49 28 47 34 -6 18 -130 116 -155 122 -31 9 -66 -17 -98 -71 -14 -25 -29 -44 -32 -41 -7 8 55 100 78 114 11 7 18 17 15 23 -8 11 -120 69 -135 69 -7 0 -24 -13 -40 -28z m80 -62 c0 -5 -2 -10 -4 -10 -3 0 -8 5 -11 10 -3 6 -1 10 4 10 6 0 11 -4 11 -10z m-35 -10 c3 -5 1 -10 -4 -10 -6 0 -11 5 -11 10 0 6 2 10 4 10 3 0 8 -4 11 -10z m185 -60 c0 -5 -2 -10 -4 -10 -3 0 -8 5 -11 10 -3 6 -1 10 4 10 6 0 11 -4 11 -10z m-15 -30 c3 -5 1 -10 -4 -10 -6 0 -11 5 -11 10 0 6 2 10 4 10 3 0 8 -4 11 -10z m-140 -39 c3 -5 1 -12 -5 -16 -5 -3 -10 1 -10 9 0 18 6 21 15 7z m272 -88 c-4 -3 -7 0 -7 7 0 7 3 10 7 7 3 -4 3 -10 0 -14z m30 0 c-4 -3 -7 0 -7 7 0 7 3 10 7 7 3 -4 3 -10 0 -14z m-173 -38 c-4 -8 -10 -12 -15 -9 -11 6 -2 24 11 24 5 0 7 -7 4 -15z m196 -82 c-8 -3 -28 -15 -43 -26 -16 -10 -30 -17 -33 -14 -9 9 48 47 70 46 15 0 16 -2 6 -6z m127 -120 c-4 -3 -10 -3 -14 0 -3 4 0 7 7 7 7 0 10 -3 7 -7z m30 -10 c-4 -3 -7 0 -7 7 0 7 3 10 7 7 3 -4 3 -10 0 -14z m-147 -13 c0 -5 -4 -10 -10 -10 -5 0 -10 5 -10 10 0 6 5 10 10 10 6 0 10 -4 10 -10z m-23 -27 c-4 -3 -10 -3 -14 0 -3 4 0 7 7 7 7 0 10 -3 7 -7z m211 -120 c-3 -16 -13 -18 -71 -15 -63 4 -68 2 -98 -27 -27 -27 -49 -39 -49 -27 0 2 -3 12 -7 22 -4 12 -3 15 5 10 6 -4 25 3 42 15 21 16 51 25 102 29 40 4 74 8 76 9 2 0 2 -7 0 -16z m-27 -126 c-15 -15 -45 3 -49 29 -3 18 -2 18 11 2 20 -25 37 -22 38 5 2 22 2 22 6 -2 3 -13 0 -28 -6 -34z m-81 14 c0 -22 -14 -41 -30 -41 -21 0 -46 27 -35 38 4 4 10 1 12 -5 6 -18 33 -16 33 2 0 8 5 15 10 15 6 0 10 -4 10 -9z"/>
</g>
<g id="layer109" fill="#000000" stroke="none">
<path d="M335 1786 c-42 -18 -83 -69 -91 -112 -10 -52 1 -101 40 -179 38 -76 140 -205 163 -205 24 0 133 61 152 86 21 27 33 31 25 9 -7 -18 -88 -77 -131 -94 -18 -7 -33 -16 -33 -19 0 -8 50 -49 107 -89 l52 -36 38 28 c45 34 82 75 83 93 0 12 20 18 20 6 0 -17 -37 -63 -76 -94 -24 -19 -44 -38 -44 -42 0 -10 140 -77 177 -84 25 -5 34 -1 52 22 12 15 26 47 33 71 10 43 28 68 28 40 0 -20 -39 -108 -58 -129 -17 -20 -18 -19 53 -37 69 -18 101 -14 120 16 34 52 30 145 -9 196 -9 11 -31 19 -60 22 -58 5 -164 60 -249 130 -73 60 -117 127 -168 254 -21 51 -48 100 -70 123 -31 33 -42 38 -80 38 -24 -1 -58 -7 -74 -14z m90 -46 c10 -11 13 -20 7 -20 -6 0 -14 5 -17 10 -10 17 -23 11 -28 -12 -3 -20 -4 -21 -11 -5 -5 10 -3 23 4 32 16 20 23 19 45 -5z m-85 -50 c11 -20 -3 -30 -15 -10 -11 18 -27 11 -22 -10 3 -11 1 -20 -3 -20 -12 0 -23 37 -15 50 11 17 44 11 55 -10z m161 -17 c12 -14 12 -16 -1 -11 -8 2 -25 -9 -39 -25 -29 -34 -93 -66 -133 -67 -16 0 -28 -5 -28 -12 0 -6 -3 -9 -6 -5 -3 3 -3 14 0 24 4 14 16 18 45 18 45 0 109 39 117 73 7 26 26 29 45 5z m46 -170 c-4 -3 -10 -3 -14 0 -3 4 0 7 7 7 7 0 10 -3 7 -7z m-17 -23 c0 -5 -4 -10 -10 -10 -5 0 -10 5 -10 10 0 6 5 10 10 10 6 0 10 -4 10 -10z m131 -63 c-8 -8 -14 -7 -23 2 -10 11 -10 13 0 7 6 -4 12 -2 12 4 0 6 5 8 11 4 8 -4 8 -9 0 -17z m-284 -4 c-4 -3 -7 0 -7 7 0 7 3 10 7 7 3 -4 3 -10 0 -14z m43 7 c0 -5 -4 -10 -10 -10 -5 0 -10 5 -10 10 0 6 5 10 10 10 6 0 10 -4 10 -10z m364 -115 c-4 -8 -8 -15 -10 -15 -2 0 -4 7 -4 15 0 8 4 15 10 15 5 0 7 -7 4 -15z m-134 -75 c0 -5 -4 -10 -10 -10 -5 0 -10 5 -10 10 0 6 5 10 10 10 6 0 10 -4 10 -10z m290 -6 c0 -8 -5 -12 -10 -9 -6 4 -8 11 -5 16 9 14 15 11 15 -7z m-323 -11 c-4 -3 -7 0 -7 7 0 7 3 10 7 7 3 -4 3 -10 0 -14z m198 -63 c3 -5 -1 -10 -10 -10 -9 0 -13 5 -10 10 3 6 8 10 10 10 2 0 7 -4 10 -10z m-8 -37 c-4 -3 -10 -3 -14 0 -3 4 0 7 7 7 7 0 10 -3 7 -7z m193 -14 c0 -6 -4 -7 -10 -4 -5 3 -10 11 -10 16 0 6 5 7 10 4 6 -3 10 -11 10 -16z m-30 -20 c0 -5 -4 -9 -10 -9 -5 0 -10 7 -10 16 0 8 5 12 10 9 6 -3 10 -10 10 -16z"/>
<path d="M1146 1447 c3 -10 9 -15 12 -12 3 3 0 11 -7 18 -10 9 -11 8 -5 -6z"/>
<path d="M1342 1418 l1 -43 4 37 c3 28 9 38 26 41 18 4 17 5 -5 6 -27 1 -28 -1 -26 -41z"/>
<path d="M1410 1450 c0 -7 3 -10 7 -7 3 4 3 10 0 14 -4 3 -7 0 -7 -7z"/>
<path d="M1535 1450 c3 -5 8 -10 11 -10 3 0 2 5 -1 10 -3 6 -8 10 -11 10 -3 0 -2 -4 1 -10z"/>
<path d="M1568 1420 c-2 -22 0 -40 4 -40 5 0 8 18 8 40 0 22 -2 40 -4 40 -2 0 -6 -18 -8 -40z"/>
<path d="M1787 1440 c-3 -11 -1 -20 4 -20 5 0 9 9 9 20 0 11 -2 20 -4 20 -2 0 -6 -9 -9 -20z"/>
<path d="M1854 1448 c-4 -7 -3 -8 4 -4 12 7 16 16 8 16 -3 0 -8 -5 -12 -12z"/>
<path d="M1932 1418 l1 -43 4 37 c3 28 9 38 26 41 18 4 17 5 -5 6 -27 1 -28 -1 -26 -41z"/>
<path d="M2050 1450 c0 -7 3 -10 7 -7 3 4 3 10 0 14 -4 3 -7 0 -7 -7z"/>
<path d="M2104 1448 c-4 -7 -3 -8 4 -4 7 4 12 9 12 12 0 8 -9 4 -16 -8z"/>
<path d="M2245 1450 c3 -5 8 -10 11 -10 3 0 2 5 -1 10 -3 6 -8 10 -11 10 -3 0 -2 -4 1 -10z"/>
<path d="M2292 1418 l1 -43 4 37 c3 28 9 38 26 41 18 4 17 5 -5 6 -27 1 -28 -1 -26 -41z"/>
<path d="M1454 1428 c-4 -7 -3 -8 4 -4 12 7 16 16 8 16 -3 0 -8 -5 -12 -12z"/>
<path d="M1732 1420 c0 -14 2 -19 5 -12 2 6 2 18 0 25 -3 6 -5 1 -5 -13z"/>
<path d="M1114 1408 c-4 -7 -3 -8 4 -4 7 4 12 9 12 12 0 8 -9 4 -16 -8z"/>
<path d="M2046 1393 c-6 -14 -5 -15 5 -6 7 7 10 15 7 18 -3 3 -9 -2 -12 -12z"/>
<path d="M2130 1400 c0 -7 3 -10 7 -7 3 4 3 10 0 14 -4 3 -7 0 -7 -7z"/>
<path d="M1144 1388 c-4 -7 -3 -8 4 -4 12 7 16 16 8 16 -3 0 -8 -5 -12 -12z"/>
<path d="M1435 1390 c3 -5 8 -10 11 -10 3 0 2 5 -1 10 -3 6 -8 10 -11 10 -3 0 -2 -4 1 -10z"/>
<path d="M1504 1388 c-4 -7 -3 -8 4 -4 7 4 12 9 12 12 0 8 -9 4 -16 -8z"/>
<path d="M1784 1388 c-4 -7 -3 -8 4 -4 7 4 12 9 12 12 0 8 -9 4 -16 -8z"/>
<path d="M3190 1072 c-28 -28 -50 -85 -50 -130 0 -41 30 -92 54 -92 11 0 35 -8 51 -19 39 -24 150 -136 183 -184 18 -27 31 -37 44 -34 10 3 21 1 24 -4 5 -8 -10 -13 -29 -10 -5 1 -6 -4 -4 -11 19 -45 38 -127 52 -217 8 -57 23 -118 33 -135 26 -45 76 -68 135 -62 121 13 173 126 132 285 -17 67 -48 140 -81 192 -23 36 -23 37 -70 28 -62 -12 -69 -3 -10 12 25 6 46 15 46 19 0 11 -71 99 -102 128 l-25 23 -49 -19 c-26 -11 -63 -34 -81 -53 -35 -35 -43 -33 -18 4 8 13 42 36 75 52 33 16 59 34 57 39 -6 18 -130 116 -155 122 -31 9 -66 -17 -98 -71 -14 -25 -29 -44 -32 -41 -7 8 55 100 78 114 11 7 18 17 15 23 -8 11 -120 69 -135 69 -7 0 -24 -13 -40 -28z m80 -62 c0 -5 -2 -10 -4 -10 -3 0 -8 5 -11 10 -3 6 -1 10 4 10 6 0 11 -4 11 -10z m-35 -10 c3 -5 1 -10 -4 -10 -6 0 -11 5 -11 10 0 6 2 10 4 10 3 0 8 -4 11 -10z m185 -60 c0 -5 -2 -10 -4 -10 -3 0 -8 5 -11 10 -3 6 -1 10 4 10 6 0 11 -4 11 -10z m-15 -30 c3 -5 1 -10 -4 -10 -6 0 -11 5 -11 10 0 6 2 10 4 10 3 0 8 -4 11 -10z m-140 -39 c3 -5 1 -12 -5 -16 -5 -3 -10 1 -10 9 0 18 6 21 15 7z m272 -88 c-4 -3 -7 0 -7 7 0 7 3 10 7 7 3 -4 3 -10 0 -14z m30 0 c-4 -3 -7 0 -7 7 0 7 3 10 7 7 3 -4 3 -10 0 -14z m-173 -38 c-4 -8 -10 -12 -15 -9 -11 6 -2 24 11 24 5 0 7 -7 4 -15z m196 -83 c-8 -3 -28 -14 -43 -25 -29 -20 -41 -20 -29 -1 11 17 66 43 76 36 6 -3 3 -8 -4 -10z m127 -119 c-4 -3 -10 -3 -14 0 -3 4 0 7 7 7 7 0 10 -3 7 -7z m30 -10 c-4 -3 -7 0 -7 7 0 7 3 10 7 7 3 -4 3 -10 0 -14z m-147 -13 c0 -5 -4 -10 -10 -10 -5 0 -10 5 -10 10 0 6 5 10 10 10 6 0 10 -4 10 -10z m-20 -30 c0 -5 -2 -10 -4 -10 -3 0 -8 5 -11 10 -3 6 -1 10 4 10 6 0 11 -4 11 -10z m208 -120 c-3 -12 -16 -14 -60 -12 -63 4 -114 -16 -127 -50 -7 -19 -8 -19 -24 -3 -18 18 -23 40 -7 30 5 -3 23 4 39 16 33 24 73 34 137 34 34 0 44 -3 42 -15z m-27 -123 c-15 -15 -45 3 -49 29 -3 18 -2 18 11 2 20 -25 37 -22 38 5 2 22 2 22 6 -2 3 -13 0 -28 -6 -34z m-103 10 c13 23 26 11 17 -16 -11 -35 -65 -20 -65 18 0 11 4 11 19 -3 18 -17 20 -17 29 1z"/>
</g>
<g id="layer110" fill="#fdbc4a" stroke="none">
<path d="M335 1786 c-42 -18 -83 -69 -91 -112 -10 -52 1 -101 40 -179 37 -75 140 -205 162 -205 24 0 135 63 154 87 20 26 32 30 24 8 -7 -18 -88 -77 -131 -94 -18 -7 -33 -16 -33 -19 0 -8 50 -49 107 -89 l52 -36 38 28 c45 34 82 75 83 93 0 6 5 12 10 12 27 0 -7 -53 -61 -96 -27 -21 -49 -42 -49 -46 0 -13 150 -80 182 -82 35 -1 65 31 74 78 3 16 10 39 17 50 9 18 12 19 15 4 4 -19 -32 -104 -55 -130 -18 -20 -19 -19 52 -37 69 -18 101 -14 120 16 34 52 30 145 -9 196 -9 11 -31 19 -60 22 -58 5 -164 60 -249 130 -73 60 -117 127 -168 254 -21 51 -48 100 -70 123 -31 33 -42 38 -80 38 -24 -1 -58 -7 -74 -14z m90 -46 c10 -11 13 -20 7 -20 -6 0 -14 5 -17 10 -10 17 -23 11 -28 -12 -3 -20 -4 -21 -11 -5 -5 10 -3 23 4 32 16 20 23 19 45 -5z m-85 -50 c11 -20 -3 -30 -15 -10 -11 18 -27 11 -22 -10 3 -11 1 -20 -3 -20 -12 0 -23 37 -15 50 11 17 44 11 55 -10z m161 -17 c12 -14 12 -16 0 -11 -14 4 -78 -58 -74 -72 1 -3 -6 -6 -15 -7 -52 -4 -108 -17 -114 -27 -11 -16 -10 15 0 32 5 7 16 10 25 6 10 -3 17 -1 17 5 0 6 7 8 15 5 22 -9 95 37 101 63 7 27 26 30 45 6z m40 -172 c-7 -5 -10 -14 -7 -20 4 -6 0 -11 -8 -11 -18 0 -19 2 -10 24 3 9 14 16 23 16 13 0 13 -2 2 -9z m-121 -82 c0 -5 -4 -9 -10 -9 -5 0 -10 5 -10 11 0 8 -5 8 -15 -1 -9 -8 -15 -8 -15 -2 0 6 6 12 13 15 16 5 37 -3 37 -14z m241 -2 c-8 -8 -14 -7 -23 2 -10 11 -10 13 0 7 6 -4 12 -2 12 4 0 6 5 8 11 4 8 -4 8 -9 0 -17z m-174 -4 c-4 -3 -10 -3 -14 0 -3 4 0 7 7 7 7 0 10 -3 7 -7z m297 -108 c-4 -8 -8 -15 -10 -15 -2 0 -4 7 -4 15 0 8 4 15 10 15 5 0 7 -7 4 -15z m-134 -74 c0 -15 -33 -22 -44 -10 -8 9 -7 10 7 6 9 -4 17 -2 17 3 0 6 5 10 10 10 6 0 10 -4 10 -9z m290 -7 c0 -8 -5 -12 -10 -9 -6 4 -8 11 -5 16 9 14 15 11 15 -7z m-120 -74 c0 -5 -7 -10 -16 -10 -8 0 -12 5 -9 10 3 6 10 10 16 10 5 0 9 -4 9 -10z m-15 -30 c3 -5 1 -10 -4 -10 -6 0 -11 5 -11 10 0 6 2 10 4 10 3 0 8 -4 11 -10z m195 -16 c0 -8 -4 -12 -10 -9 -5 3 -10 10 -10 16 0 5 5 9 10 9 6 0 10 -7 10 -16z m-30 -25 c0 -5 -4 -9 -10 -9 -5 0 -10 7 -10 16 0 8 5 12 10 9 6 -3 10 -10 10 -16z"/>
<path d="M1263 1420 c0 -25 2 -35 4 -22 2 12 2 32 0 45 -2 12 -4 2 -4 -23z"/>
<path d="M1343 1420 c0 -25 2 -35 4 -22 2 12 2 32 0 45 -2 12 -4 2 -4 -23z"/>
<path d="M1573 1420 c0 -25 2 -35 4 -22 2 12 2 32 0 45 -2 12 -4 2 -4 -23z"/>
<path d="M1933 1420 c0 -25 2 -35 4 -22 2 12 2 32 0 45 -2 12 -4 2 -4 -23z"/>
<path d="M2293 1420 c0 -25 2 -35 4 -22 2 12 2 32 0 45 -2 12 -4 2 -4 -23z"/>
<path d="M1791 1434 c0 -11 3 -14 6 -6 3 7 2 16 -1 19 -3 4 -6 -2 -5 -13z"/>
<path d="M1731 1414 c0 -11 3 -14 6 -6 3 7 2 16 -1 19 -3 4 -6 -2 -5 -13z"/>
<path d="M3190 1072 c-28 -28 -50 -85 -50 -130 0 -41 30 -92 54 -92 11 0 35 -8 51 -19 39 -24 150 -136 183 -184 18 -27 31 -37 44 -34 10 3 21 1 24 -4 5 -8 -10 -13 -29 -10 -5 1 -6 -4 -4 -11 19 -45 38 -127 52 -217 8 -57 23 -118 33 -135 26 -45 76 -68 135 -62 121 13 173 126 132 285 -17 67 -48 140 -81 192 -23 36 -23 37 -70 28 -62 -12 -69 -3 -10 12 25 6 46 15 46 19 0 11 -71 99 -102 128 l-25 23 -49 -19 c-26 -11 -63 -34 -81 -53 -35 -35 -43 -33 -18 4 8 13 42 36 75 52 33 16 59 34 57 39 -6 18 -130 116 -155 122 -31 9 -66 -17 -98 -71 -14 -25 -29 -44 -32 -41 -7 8 55 100 78 114 11 7 18 17 15 23 -8 11 -120 69 -135 69 -7 0 -24 -13 -40 -28z m80 -62 c0 -5 -2 -10 -4 -10 -3 0 -8 5 -11 10 -3 6 -1 10 4 10 6 0 11 -4 11 -10z m-30 -10 c0 -5 -4 -10 -10 -10 -5 0 -10 5 -10 10 0 6 5 10 10 10 6 0 10 -4 10 -10z m180 -60 c0 -5 -2 -10 -4 -10 -3 0 -8 5 -11 10 -3 6 -1 10 4 10 6 0 11 -4 11 -10z m-15 -30 c3 -5 1 -10 -4 -10 -6 0 -11 5 -11 10 0 6 2 10 4 10 3 0 8 -4 11 -10z m-140 -39 c3 -5 1 -12 -5 -16 -5 -3 -10 1 -10 9 0 18 6 21 15 7z m272 -88 c-4 -3 -7 0 -7 7 0 7 3 10 7 7 3 -4 3 -10 0 -14z m30 0 c-4 -3 -7 0 -7 7 0 7 3 10 7 7 3 -4 3 -10 0 -14z m-173 -38 c-4 -8 -10 -12 -15 -9 -11 6 -2 24 11 24 5 0 7 -7 4 -15z m190 -86 c-11 -4 -26 -14 -33 -23 -17 -21 -42 -21 -34 -1 6 18 63 45 77 37 5 -3 1 -9 -10 -13z m133 -116 c-4 -3 -10 -3 -14 0 -3 4 0 7 7 7 7 0 10 -3 7 -7z m30 -10 c-4 -3 -7 0 -7 7 0 7 3 10 7 7 3 -4 3 -10 0 -14z m-147 -13 c0 -5 -4 -10 -10 -10 -5 0 -10 5 -10 10 0 6 5 10 10 10 6 0 10 -4 10 -10z m-20 -30 c0 -5 -4 -10 -10 -10 -5 0 -10 5 -10 10 0 6 5 10 10 10 6 0 10 -4 10 -10z m208 -120 c-3 -11 -16 -14 -56 -12 -62 3 -117 -18 -127 -47 -3 -12 -10 -21 -15 -21 -9 0 -35 40 -28 43 2 1 26 13 53 27 60 30 178 37 173 10z m-27 -123 c-15 -15 -45 3 -49 29 -3 18 -2 18 11 2 20 -25 37 -22 38 5 2 22 2 22 6 -2 3 -13 0 -28 -6 -34z m-127 19 c-3 -8 -1 -17 5 -20 5 -4 13 3 16 15 5 14 10 18 17 11 17 -17 -1 -54 -24 -50 -30 4 -48 36 -28 48 20 13 20 12 14 -4z"/>
</g>
<g id="layer111" fill="#eebd67" stroke="none">
<path d="M665 1401 c-3 -5 -1 -12 4 -15 5 -3 11 1 15 9 6 16 -9 21 -19 6z"/>
<path d="M700 1392 c0 -15 -32 -24 -43 -13 -5 5 -16 7 -23 4 -17 -6 -19 -33 -2 -33 6 0 8 -3 5 -6 -4 -4 -14 -1 -24 7 -15 12 -16 12 -10 -3 4 -12 2 -15 -9 -11 -8 3 -26 -2 -39 -11 -23 -15 -24 -18 -10 -32 12 -13 19 -13 30 -4 8 7 13 16 10 20 -3 4 11 11 30 14 22 4 35 13 35 22 0 8 4 13 9 9 11 -6 61 15 61 26 0 4 -4 11 -10 14 -5 3 -10 2 -10 -3z m-130 -82 c0 -5 -4 -10 -10 -10 -5 0 -10 5 -10 10 0 6 5 10 10 10 6 0 10 -4 10 -10z"/>
<path d="M3601 722 c-1 -7 -6 -10 -11 -7 -6 3 -13 0 -16 -8 -3 -8 -19 -14 -36 -14 -18 0 -34 -5 -36 -11 -2 -6 -10 -8 -18 -5 -17 6 -19 -11 -1 -24 21 -16 42 -9 39 12 -2 15 -1 17 6 6 7 -9 17 -11 33 -5 13 4 27 7 31 6 4 -1 4 6 1 16 -6 15 -5 15 10 3 18 -15 20 -7 7 24 -5 11 -9 14 -9 7z"/>
<path d="M3436 667 c-16 -12 -16 -14 -2 -26 14 -12 16 -11 10 5 -5 18 -5 18 10 0 12 -14 16 -16 16 -5 0 29 -15 40 -34 26z"/>
<path d="M3555 440 c3 -5 8 -10 11 -10 3 0 2 5 -1 10 -3 6 -8 10 -11 10 -3 0 -2 -4 1 -10z"/>
</g>
<g id="layer112" fill="#f8c66f" stroke="none">
<path d="M665 1400 c-3 -5 -2 -10 4 -10 5 0 13 5 16 10 3 6 2 10 -4 10 -5 0 -13 -4 -16 -10z"/>
<path d="M704 1391 c8 -12 -36 -22 -49 -11 -6 5 -17 5 -25 0 -11 -7 -11 -11 -1 -24 16 -19 1 -22 -18 -3 -11 10 -13 9 -8 -5 4 -12 2 -15 -8 -12 -8 3 -22 1 -32 -5 -10 -6 -12 -11 -5 -11 6 0 12 -5 12 -11 0 -6 -7 -8 -16 -5 -14 5 -15 4 -4 -9 10 -12 16 -13 26 -4 8 6 12 15 9 19 -3 4 11 11 30 14 21 4 35 13 35 21 0 8 -5 15 -12 15 -6 0 -8 3 -5 6 4 4 13 1 22 -6 12 -10 20 -9 40 4 21 14 27 36 9 36 -3 0 -3 -4 0 -9z"/>
<path d="M3570 694 c0 -12 -3 -14 -13 -6 -17 15 -57 4 -57 -15 0 -13 -3 -13 -15 -3 -9 8 -15 9 -15 2 0 -12 18 -25 38 -28 9 -2 12 4 9 17 -5 20 9 27 15 8 3 -9 10 -9 26 0 12 7 28 9 35 5 8 -5 7 -2 -2 9 -16 20 -1 23 18 5 10 -11 11 -10 6 5 -9 22 -45 23 -45 1z m-23 -21 c-4 -3 -7 0 -7 7 0 7 3 10 7 7 3 -4 3 -10 0 -14z"/>
</g>
<g id="layer113" fill="#f8d290" stroke="none">
<path d="M705 1390 c3 -5 -1 -10 -9 -10 -9 0 -16 -5 -16 -10 0 -7 7 -7 20 0 17 9 20 30 4 30 -3 0 -2 -4 1 -10z"/>
<path d="M650 1365 c7 -9 15 -13 17 -11 7 7 -7 26 -19 26 -6 0 -6 -6 2 -15z"/>
<path d="M630 1356 c14 -18 13 -19 -7 -14 -15 4 -20 2 -17 -7 5 -13 44 -9 44 5 0 4 -8 14 -17 21 -17 13 -17 13 -3 -5z"/>
<path d="M560 1330 c-10 -6 -11 -10 -2 -10 6 0 12 -5 12 -11 0 -6 -7 -8 -16 -5 -8 3 -12 2 -9 -4 10 -15 35 -12 35 5 0 8 5 15 11 15 5 0 7 5 4 10 -8 12 -16 12 -35 0z"/>
<path d="M3570 695 c0 -13 -3 -15 -13 -7 -18 15 -60 3 -53 -14 7 -17 -6 -18 -23 -1 -11 10 -11 8 -2 -10 12 -24 46 -21 37 3 -7 17 6 18 23 2 10 -11 11 -9 5 6 -6 15 -4 17 7 11 7 -5 22 -10 31 -10 15 -1 16 1 6 14 -7 9 -14 18 -15 20 -2 2 -3 -4 -3 -14z"/>
<path d="M3600 701 c0 -6 4 -13 10 -16 6 -3 7 1 4 9 -7 18 -14 21 -14 7z"/>
<path d="M3426 661 c-3 -5 1 -14 9 -21 13 -11 15 -10 9 6 -5 18 -4 18 12 -1 15 -18 16 -18 10 -2 -3 10 -6 21 -6 23 0 8 -29 4 -34 -5z"/>
</g>
<g id="layer114" fill="#fefefe" stroke="none">
<path d="M1155 1188 c-7 -55 -35 -309 -35 -325 0 -8 13 -13 30 -13 35 0 36 3 46 135 8 100 11 96 40 -47 16 -80 19 -88 40 -88 26 0 33 18 55 144 16 84 25 68 34 -56 l7 -88 33 0 c32 0 33 1 28 38 -2 20 -12 105 -22 187 l-16 150 -32 3 c-34 3 -34 3 -53 -83 -6 -27 -16 -68 -22 -90 l-11 -40 -26 105 c-26 104 -26 105 -58 108 -30 3 -32 1 -38 -40z"/>
<path d="M1514 1222 c-27 -18 -34 -56 -34 -184 0 -87 5 -142 13 -158 12 -23 18 -25 87 -25 69 0 75 2 87 25 8 16 13 70 13 152 0 123 -9 175 -33 190 -15 10 -119 10 -133 0z m96 -182 l0 -130 -30 0 -30 0 0 123 c0 68 3 127 7 130 3 4 17 7 30 7 23 0 23 0 23 -130z"/>
<path d="M1727 1223 c-4 -3 -7 -89 -7 -190 l0 -183 83 0 c111 0 117 6 117 125 0 68 -4 93 -17 107 -15 17 -15 22 0 78 10 33 17 62 17 65 0 4 -15 5 -32 3 -31 -3 -34 -6 -49 -63 -10 -40 -21 -61 -32 -63 -15 -3 -17 6 -17 62 0 66 0 66 -28 66 -16 0 -32 -3 -35 -7z m129 -206 c3 -13 4 -41 2 -63 -3 -36 -6 -39 -35 -42 l-33 -3 0 65 0 66 30 0 c23 0 31 -5 36 -23z"/>
<path d="M1970 1040 l0 -190 40 0 c33 0 41 4 45 23 3 12 16 65 29 117 l22 95 23 -100 c12 -55 25 -108 27 -117 4 -13 16 -18 45 -18 l39 0 0 190 0 190 -30 0 -29 0 -3 -112 -3 -113 -24 113 c-22 102 -26 113 -45 110 -17 -3 -25 -20 -47 -113 l-27 -110 -1 113 -1 112 -30 0 -30 0 0 -190z"/>
<path d="M2310 1210 c-18 -18 -20 -33 -20 -168 0 -186 3 -192 95 -192 95 0 95 0 95 189 0 187 -2 191 -93 191 -44 0 -62 -5 -77 -20z m108 -172 l3 -128 -31 0 -30 0 0 131 0 130 28 -3 27 -3 3 -127z"/>
<path d="M2607 1223 c-3 -5 -21 -82 -41 -173 -20 -91 -39 -173 -42 -182 -4 -15 1 -18 29 -18 l34 0 23 125 c13 69 25 124 27 122 1 -2 12 -48 23 -103 31 -154 27 -144 60 -144 17 0 30 5 30 10 0 9 -54 258 -75 348 -4 16 -13 22 -35 22 -16 0 -31 -3 -33 -7z"/>
<path d="M2790 1040 l0 -190 35 0 35 0 0 190 0 190 -35 0 -35 0 0 -190z"/>
<path d="M2907 1224 c-4 -4 -7 -90 -7 -191 l0 -183 101 0 100 0 -3 28 c-3 26 -6 27 -65 30 l-63 3 0 49 0 50 50 0 c49 0 50 1 50 30 0 29 -1 30 -50 30 l-50 0 0 50 0 50 66 0 65 0 -3 28 c-3 27 -3 27 -93 30 -50 1 -94 0 -98 -4z"/>
</g>


</svg>